<svg xmlns="http://www.w3.org/2000/svg" id="pf__figure" width="610" height="210" viewBox="0 0 610 210">
  <defs>
    <clipPath id="pf__clipPath-0">
      <rect x="5.0" y="5.0" width="600.0" height="200.0"/>
    </clipPath>
    <clipPath id="pf__clipPath-1">
      <rect x="5.0" y="5.0" width="600.0" height="200.0"/>
    </clipPath>
  </defs>
  <line id="pf__line-0" x1="275.7" y1="154.0" x2="275.7" y2="54.0" stroke="#777" stroke-width="1" fill="none"/>
  <line id="pf__line-1" x1="587.8" y1="154.0" x2="587.8" y2="54.0" stroke="#777" stroke-width="1" fill="none"/>
  <g id="pf__g-0">
    <line id="pf__line-2-k_0" x1="205.0" y1="105.0" x2="5.0" y2="105.0" stroke="#777" stroke-width="1" fill="none"/>
    <line id="pf__line-3-k_1" x1="197.4" y1="66.7" x2="12.6" y2="143.3" stroke="#777" stroke-width="1" fill="none"/>
    <line id="pf__line-4-k_2" x1="175.7" y1="34.3" x2="34.3" y2="175.7" stroke="#777" stroke-width="1" fill="none"/>
    <line id="pf__line-5-k_3" x1="143.3" y1="12.6" x2="66.7" y2="197.4" stroke="#777" stroke-width="1" fill="none"/>
    <line id="pf__line-6-k_4" x1="105.0" y1="5.0" x2="105.0" y2="205.0" stroke="#777" stroke-width="1" fill="none"/>
    <line id="pf__line-7-k_5" x1="66.7" y1="12.6" x2="143.3" y2="197.4" stroke="#777" stroke-width="1" fill="none"/>
    <line id="pf__line-8-k_6" x1="34.3" y1="34.3" x2="175.7" y2="175.7" stroke="#777" stroke-width="1" fill="none"/>
    <line id="pf__line-9-k_7" x1="12.6" y1="66.7" x2="197.4" y2="143.3" stroke="#777" stroke-width="1" fill="none"/>
  </g>
  <path id="pf__path-0" d="M 205.0 105.0 L 204.8 98.7 L 204.2 92.5 L 203.2 86.3 L 201.9 80.1 L 200.1 74.1 L 198.0 68.2 L 195.5 62.4 L 192.6 56.8 L 189.4 51.4 L 185.9 46.2 L 182.1 41.3 L 177.9 36.5 L 173.5 32.1 L 168.7 27.9 L 163.8 24.1 L 158.6 20.6 L 153.2 17.4 L 147.6 14.5 L 141.8 12.0 L 135.9 9.9 L 129.9 8.1 L 123.7 6.8 L 117.5 5.8 L 111.3 5.2 L 105.0 5.0 L 98.7 5.2 L 92.5 5.8 L 86.3 6.8 L 80.1 8.1 L 74.1 9.9 L 68.2 12.0 L 62.4 14.5 L 56.8 17.4 L 51.4 20.6 L 46.2 24.1 L 41.3 27.9 L 36.5 32.1 L 32.1 36.5 L 27.9 41.3 L 24.1 46.2 L 20.6 51.4 L 17.4 56.8 L 14.5 62.4 L 12.0 68.2 L 9.9 74.1 L 8.1 80.1 L 6.8 86.3 L 5.8 92.5 L 5.2 98.7 L 5.0 105.0 L 5.2 111.3 L 5.8 117.5 L 6.8 123.7 L 8.1 129.9 L 9.9 135.9 L 12.0 141.8 L 14.5 147.6 L 17.4 153.2 L 20.6 158.6 L 24.1 163.8 L 27.9 168.7 L 32.1 173.5 L 36.5 177.9 L 41.3 182.1 L 46.2 185.9 L 51.4 189.4 L 56.8 192.6 L 62.4 195.5 L 68.2 198.0 L 74.1 200.1 L 80.1 201.9 L 86.3 203.2 L 92.5 204.2 L 98.7 204.8 L 105.0 205.0 L 111.3 204.8 L 117.5 204.2 L 123.7 203.2 L 129.9 201.9 L 135.9 200.1 L 141.8 198.0 L 147.6 195.5 L 153.2 192.6 L 158.6 189.4 L 163.8 185.9 L 168.7 182.1 L 173.5 177.9 L 177.9 173.5 L 182.1 168.7 L 185.9 163.8 L 189.4 158.6 L 192.6 153.2 L 195.5 147.6 L 198.0 141.8 L 200.1 135.9 L 201.9 129.9 L 203.2 123.7 L 204.2 117.5 L 204.8 111.3 Z" stroke="black" stroke-width="2" fill="none"/>
  <g id="pf__g-1">
    <line id="pf__line-10-k_1" x1="314.7" y1="154.0" x2="295.2" y2="56.0" stroke="#777" stroke-width="1" fill="none"/>
    <line id="pf__line-11-k_2" x1="353.7" y1="154.0" x2="334.2" y2="56.0" stroke="#777" stroke-width="1" fill="none"/>
    <line id="pf__line-12-k_3" x1="392.8" y1="154.0" x2="373.2" y2="56.0" stroke="#777" stroke-width="1" fill="none"/>
    <line id="pf__line-13-k_4" x1="431.8" y1="154.0" x2="412.3" y2="56.0" stroke="#777" stroke-width="1" fill="none"/>
    <line id="pf__line-14-k_5" x1="470.8" y1="154.0" x2="451.3" y2="56.0" stroke="#777" stroke-width="1" fill="none"/>
    <line id="pf__line-15-k_6" x1="509.8" y1="154.0" x2="490.3" y2="56.0" stroke="#777" stroke-width="1" fill="none"/>
    <line id="pf__line-16-k_7" x1="548.8" y1="154.0" x2="529.3" y2="56.0" stroke="#777" stroke-width="1" fill="none"/>
    <line id="pf__line-17-k_8" x1="587.8" y1="154.0" x2="568.3" y2="56.0" stroke="#777" stroke-width="1" fill="none"/>
  </g>
  <g id="pf__g-2">
    <line id="pf__line-18-k_0" x1="275.7" y1="154.0" x2="295.2" y2="56.0" stroke="#777" stroke-width="1" fill="none"/>
    <line id="pf__line-19-k_1" x1="314.7" y1="154.0" x2="334.2" y2="56.0" stroke="#777" stroke-width="1" fill="none"/>
    <line id="pf__line-20-k_2" x1="353.7" y1="154.0" x2="373.2" y2="56.0" stroke="#777" stroke-width="1" fill="none"/>
    <line id="pf__line-21-k_3" x1="392.8" y1="154.0" x2="412.3" y2="56.0" stroke="#777" stroke-width="1" fill="none"/>
    <line id="pf__line-22-k_4" x1="431.8" y1="154.0" x2="451.3" y2="56.0" stroke="#777" stroke-width="1" fill="none"/>
    <line id="pf__line-23-k_5" x1="470.8" y1="154.0" x2="490.3" y2="56.0" stroke="#777" stroke-width="1" fill="none"/>
    <line id="pf__line-24-k_6" x1="509.8" y1="154.0" x2="529.3" y2="56.0" stroke="#777" stroke-width="1" fill="none"/>
    <line id="pf__line-25-k_7" x1="548.8" y1="154.0" x2="568.3" y2="56.0" stroke="#777" stroke-width="1" fill="none"/>
  </g>
  <g id="pf__g-3">
    <path id="pf__path-1-k_0" d="M 295.2 56.0 L 295.0 55.9 L 294.8 55.9 L 294.6 55.8 L 294.4 55.8 L 294.2 55.8 L 294.1 55.7 L 293.9 55.7 L 293.7 55.7 L 293.5 55.6 L 293.3 55.6 L 293.1 55.6 L 292.9 55.5 L 292.7 55.5 L 292.5 55.5 L 292.3 55.4 L 292.1 55.4 L 291.9 55.4 L 291.7 55.3 L 291.5 55.3 L 291.3 55.3 L 291.2 55.2 L 291.0 55.2 L 290.8 55.2 L 290.6 55.2 L 290.4 55.1 L 290.2 55.1 L 290.0 55.1 L 289.8 55.0 L 289.6 55.0 L 289.4 55.0 L 289.2 55.0 L 289.0 54.9 L 288.8 54.9 L 288.6 54.9 L 288.4 54.9 L 288.2 54.8 L 288.0 54.8 L 287.8 54.8 L 287.7 54.8 L 287.5 54.7 L 287.3 54.7 L 287.1 54.7 L 286.9 54.7 L 286.7 54.6 L 286.5 54.6 L 286.3 54.6 L 286.1 54.6 L 285.9 54.6 L 285.7 54.5 L 285.5 54.5 L 285.3 54.5 L 285.1 54.5 L 284.9 54.5 L 284.7 54.4 L 284.5 54.4 L 284.3 54.4 L 284.1 54.4 L 283.9 54.4 L 283.7 54.4 L 283.6 54.3 L 283.4 54.3 L 283.2 54.3 L 283.0 54.3 L 282.8 54.3 L 282.6 54.3 L 282.4 54.3 L 282.2 54.2 L 282.0 54.2 L 281.8 54.2 L 281.6 54.2 L 281.4 54.2 L 281.2 54.2 L 281.0 54.2 L 280.8 54.2 L 280.6 54.2 L 280.4 54.2 L 280.2 54.1 L 280.0 54.1 L 279.8 54.1 L 279.6 54.1 L 279.4 54.1 L 279.2 54.1 L 279.0 54.1 L 278.8 54.1 L 278.6 54.1 L 278.5 54.1 L 278.3 54.1 L 278.1 54.1 L 277.9 54.1 L 277.7 54.1 L 277.5 54.1 L 277.3 54.1 L 277.1 54.0 L 276.9 54.0 L 276.7 54.0 L 276.5 54.0 L 276.3 54.0 L 276.1 54.0 L 275.9 54.0" stroke="black" stroke-width="2" fill="none"/>
    <path id="pf__path-2-k_0" d="M 314.7 54.0 L 314.5 54.0 L 314.3 54.0 L 314.1 54.0 L 313.9 54.0 L 313.7 54.0 L 313.5 54.0 L 313.3 54.0 L 313.2 54.1 L 313.0 54.1 L 312.8 54.1 L 312.6 54.1 L 312.4 54.1 L 312.2 54.1 L 312.0 54.1 L 311.8 54.1 L 311.6 54.1 L 311.4 54.1 L 311.2 54.1 L 311.0 54.1 L 310.8 54.1 L 310.6 54.1 L 310.4 54.1 L 310.2 54.1 L 310.0 54.2 L 309.8 54.2 L 309.6 54.2 L 309.4 54.2 L 309.2 54.2 L 309.0 54.2 L 308.8 54.2 L 308.6 54.2 L 308.4 54.2 L 308.2 54.2 L 308.1 54.3 L 307.9 54.3 L 307.7 54.3 L 307.5 54.3 L 307.3 54.3 L 307.1 54.3 L 306.9 54.3 L 306.7 54.4 L 306.5 54.4 L 306.3 54.4 L 306.1 54.4 L 305.9 54.4 L 305.7 54.4 L 305.5 54.5 L 305.3 54.5 L 305.1 54.5 L 304.9 54.5 L 304.7 54.5 L 304.5 54.6 L 304.3 54.6 L 304.1 54.6 L 303.9 54.6 L 303.7 54.6 L 303.6 54.7 L 303.4 54.7 L 303.2 54.7 L 303.0 54.7 L 302.8 54.8 L 302.6 54.8 L 302.4 54.8 L 302.2 54.8 L 302.0 54.9 L 301.8 54.9 L 301.6 54.9 L 301.4 54.9 L 301.2 55.0 L 301.0 55.0 L 300.8 55.0 L 300.6 55.0 L 300.4 55.1 L 300.2 55.1 L 300.0 55.1 L 299.9 55.2 L 299.7 55.2 L 299.5 55.2 L 299.3 55.2 L 299.1 55.3 L 298.9 55.3 L 298.7 55.3 L 298.5 55.4 L 298.3 55.4 L 298.1 55.4 L 297.9 55.5 L 297.7 55.5 L 297.5 55.5 L 297.3 55.6 L 297.1 55.6 L 296.9 55.6 L 296.8 55.7 L 296.6 55.7 L 296.4 55.7 L 296.2 55.8 L 296.0 55.8 L 295.8 55.8 L 295.6 55.9 L 295.4 55.9" stroke="black" stroke-width="2" fill="none"/>
    <path id="pf__path-3-k_0" d="M 275.7 154.0 L 276.1 154.1 L 276.5 154.2 L 276.9 154.3 L 277.2 154.3 L 277.6 154.4 L 278.0 154.5 L 278.4 154.5 L 278.8 154.6 L 279.2 154.7 L 279.6 154.7 L 280.0 154.8 L 280.3 154.8 L 280.7 154.9 L 281.1 155.0 L 281.5 155.0 L 281.9 155.1 L 282.3 155.1 L 282.7 155.2 L 283.1 155.2 L 283.5 155.3 L 283.8 155.3 L 284.2 155.4 L 284.6 155.4 L 285.0 155.4 L 285.4 155.5 L 285.8 155.5 L 286.2 155.6 L 286.6 155.6 L 287.0 155.6 L 287.4 155.7 L 287.8 155.7 L 288.2 155.7 L 288.5 155.7 L 288.9 155.8 L 289.3 155.8 L 289.7 155.8 L 290.1 155.8 L 290.5 155.8 L 290.9 155.9 L 291.3 155.9 L 291.7 155.9 L 292.1 155.9 L 292.5 155.9 L 292.9 155.9 L 293.3 155.9 L 293.6 155.9 L 294.0 156.0 L 294.4 156.0 L 294.8 156.0 L 295.2 156.0 L 295.6 156.0 L 296.0 156.0 L 296.4 156.0 L 296.8 155.9 L 297.2 155.9 L 297.6 155.9 L 298.0 155.9 L 298.4 155.9 L 298.7 155.9 L 299.1 155.9 L 299.5 155.9 L 299.9 155.8 L 300.3 155.8 L 300.7 155.8 L 301.1 155.8 L 301.5 155.8 L 301.9 155.7 L 302.3 155.7 L 302.7 155.7 L 303.1 155.7 L 303.5 155.6 L 303.8 155.6 L 304.2 155.6 L 304.6 155.5 L 305.0 155.5 L 305.4 155.4 L 305.8 155.4 L 306.2 155.4 L 306.6 155.3 L 307.0 155.3 L 307.4 155.2 L 307.7 155.2 L 308.1 155.1 L 308.5 155.1 L 308.9 155.0 L 309.3 155.0 L 309.7 154.9 L 310.1 154.8 L 310.5 154.8 L 310.9 154.7 L 311.2 154.7 L 311.6 154.6 L 312.0 154.5 L 312.4 154.5 L 312.8 154.4 L 313.2 154.3 L 313.6 154.3 L 314.0 154.2 L 314.3 154.1" stroke="black" stroke-width="2" fill="none"/>
    <path id="pf__path-4-k_1" d="M 334.2 56.0 L 334.0 55.9 L 333.8 55.9 L 333.7 55.8 L 333.5 55.8 L 333.3 55.8 L 333.1 55.7 L 332.9 55.7 L 332.7 55.7 L 332.5 55.6 L 332.3 55.6 L 332.1 55.6 L 331.9 55.5 L 331.7 55.5 L 331.5 55.5 L 331.3 55.4 L 331.1 55.4 L 330.9 55.4 L 330.8 55.3 L 330.6 55.3 L 330.4 55.3 L 330.2 55.2 L 330.0 55.2 L 329.8 55.2 L 329.6 55.2 L 329.4 55.1 L 329.2 55.1 L 329.0 55.1 L 328.8 55.0 L 328.6 55.0 L 328.4 55.0 L 328.2 55.0 L 328.0 54.9 L 327.8 54.9 L 327.6 54.9 L 327.5 54.9 L 327.3 54.8 L 327.1 54.8 L 326.9 54.8 L 326.7 54.8 L 326.5 54.7 L 326.3 54.7 L 326.1 54.7 L 325.9 54.7 L 325.7 54.6 L 325.5 54.6 L 325.3 54.6 L 325.1 54.6 L 324.9 54.6 L 324.7 54.5 L 324.5 54.5 L 324.3 54.5 L 324.1 54.5 L 323.9 54.5 L 323.7 54.4 L 323.5 54.4 L 323.4 54.4 L 323.2 54.4 L 323.0 54.4 L 322.8 54.4 L 322.6 54.3 L 322.4 54.3 L 322.2 54.3 L 322.0 54.3 L 321.8 54.3 L 321.6 54.3 L 321.4 54.3 L 321.2 54.2 L 321.0 54.2 L 320.8 54.2 L 320.6 54.2 L 320.4 54.2 L 320.2 54.2 L 320.0 54.2 L 319.8 54.2 L 319.6 54.2 L 319.4 54.2 L 319.2 54.1 L 319.0 54.1 L 318.8 54.1 L 318.6 54.1 L 318.5 54.1 L 318.3 54.1 L 318.1 54.1 L 317.9 54.1 L 317.7 54.1 L 317.5 54.1 L 317.3 54.1 L 317.1 54.1 L 316.9 54.1 L 316.7 54.1 L 316.5 54.1 L 316.3 54.1 L 316.1 54.0 L 315.9 54.0 L 315.7 54.0 L 315.5 54.0 L 315.3 54.0 L 315.1 54.0 L 314.9 54.0" stroke="black" stroke-width="2" fill="none"/>
    <path id="pf__path-5-k_1" d="M 353.7 54.0 L 353.5 54.0 L 353.3 54.0 L 353.2 54.0 L 353.0 54.0 L 352.8 54.0 L 352.6 54.0 L 352.4 54.0 L 352.2 54.1 L 352.0 54.1 L 351.8 54.1 L 351.6 54.1 L 351.4 54.1 L 351.2 54.1 L 351.0 54.1 L 350.8 54.1 L 350.6 54.1 L 350.4 54.1 L 350.2 54.1 L 350.0 54.1 L 349.8 54.1 L 349.6 54.1 L 349.4 54.1 L 349.2 54.1 L 349.0 54.2 L 348.8 54.2 L 348.6 54.2 L 348.4 54.2 L 348.2 54.2 L 348.0 54.2 L 347.9 54.2 L 347.7 54.2 L 347.5 54.2 L 347.3 54.2 L 347.1 54.3 L 346.9 54.3 L 346.7 54.3 L 346.5 54.3 L 346.3 54.3 L 346.1 54.3 L 345.9 54.3 L 345.7 54.4 L 345.5 54.4 L 345.3 54.4 L 345.1 54.4 L 344.9 54.4 L 344.7 54.4 L 344.5 54.5 L 344.3 54.5 L 344.1 54.5 L 343.9 54.5 L 343.7 54.5 L 343.5 54.6 L 343.4 54.6 L 343.2 54.6 L 343.0 54.6 L 342.8 54.6 L 342.6 54.7 L 342.4 54.7 L 342.2 54.7 L 342.0 54.7 L 341.8 54.8 L 341.6 54.8 L 341.4 54.8 L 341.2 54.8 L 341.0 54.9 L 340.8 54.9 L 340.6 54.9 L 340.4 54.9 L 340.2 55.0 L 340.0 55.0 L 339.8 55.0 L 339.7 55.0 L 339.5 55.1 L 339.3 55.1 L 339.1 55.1 L 338.9 55.2 L 338.7 55.2 L 338.5 55.2 L 338.3 55.2 L 338.1 55.3 L 337.9 55.3 L 337.7 55.3 L 337.5 55.4 L 337.3 55.4 L 337.1 55.4 L 336.9 55.5 L 336.7 55.5 L 336.5 55.5 L 336.4 55.6 L 336.2 55.6 L 336.0 55.6 L 335.8 55.7 L 335.6 55.7 L 335.4 55.7 L 335.2 55.8 L 335.0 55.8 L 334.8 55.8 L 334.6 55.9 L 334.4 55.9" stroke="black" stroke-width="2" fill="none"/>
    <path id="pf__path-6-k_1" d="M 314.7 154.0 L 315.1 154.1 L 315.5 154.2 L 315.9 154.3 L 316.3 154.3 L 316.7 154.4 L 317.0 154.5 L 317.4 154.5 L 317.8 154.6 L 318.2 154.7 L 318.6 154.7 L 319.0 154.8 L 319.4 154.8 L 319.8 154.9 L 320.1 155.0 L 320.5 155.0 L 320.9 155.1 L 321.3 155.1 L 321.7 155.2 L 322.1 155.2 L 322.5 155.3 L 322.9 155.3 L 323.3 155.4 L 323.6 155.4 L 324.0 155.4 L 324.4 155.5 L 324.8 155.5 L 325.2 155.6 L 325.6 155.6 L 326.0 155.6 L 326.4 155.7 L 326.8 155.7 L 327.2 155.7 L 327.6 155.7 L 328.0 155.8 L 328.3 155.8 L 328.7 155.8 L 329.1 155.8 L 329.5 155.8 L 329.9 155.9 L 330.3 155.9 L 330.7 155.9 L 331.1 155.9 L 331.5 155.9 L 331.9 155.9 L 332.3 155.9 L 332.7 155.9 L 333.1 156.0 L 333.4 156.0 L 333.8 156.0 L 334.2 156.0 L 334.6 156.0 L 335.0 156.0 L 335.4 156.0 L 335.8 155.9 L 336.2 155.9 L 336.6 155.9 L 337.0 155.9 L 337.4 155.9 L 337.8 155.9 L 338.2 155.9 L 338.5 155.9 L 338.9 155.8 L 339.3 155.8 L 339.7 155.8 L 340.1 155.8 L 340.5 155.8 L 340.9 155.7 L 341.3 155.7 L 341.7 155.7 L 342.1 155.7 L 342.5 155.6 L 342.9 155.6 L 343.3 155.6 L 343.6 155.5 L 344.0 155.5 L 344.4 155.4 L 344.8 155.4 L 345.2 155.4 L 345.6 155.3 L 346.0 155.3 L 346.4 155.2 L 346.8 155.2 L 347.2 155.1 L 347.5 155.1 L 347.9 155.0 L 348.3 155.0 L 348.7 154.9 L 349.1 154.8 L 349.5 154.8 L 349.9 154.7 L 350.3 154.7 L 350.7 154.6 L 351.0 154.5 L 351.4 154.5 L 351.8 154.4 L 352.2 154.3 L 352.6 154.3 L 353.0 154.2 L 353.4 154.1" stroke="black" stroke-width="2" fill="none"/>
    <path id="pf__path-7-k_2" d="M 373.2 56.0 L 373.1 55.9 L 372.9 55.9 L 372.7 55.8 L 372.5 55.8 L 372.3 55.8 L 372.1 55.7 L 371.9 55.7 L 371.7 55.7 L 371.5 55.6 L 371.3 55.6 L 371.1 55.6 L 370.9 55.5 L 370.7 55.5 L 370.5 55.5 L 370.4 55.4 L 370.2 55.4 L 370.0 55.4 L 369.8 55.3 L 369.6 55.3 L 369.4 55.3 L 369.2 55.2 L 369.0 55.2 L 368.8 55.2 L 368.6 55.2 L 368.4 55.1 L 368.2 55.1 L 368.0 55.1 L 367.8 55.0 L 367.6 55.0 L 367.4 55.0 L 367.2 55.0 L 367.1 54.9 L 366.9 54.9 L 366.7 54.9 L 366.5 54.9 L 366.3 54.8 L 366.1 54.8 L 365.9 54.8 L 365.7 54.8 L 365.5 54.7 L 365.3 54.7 L 365.1 54.7 L 364.9 54.7 L 364.7 54.6 L 364.5 54.6 L 364.3 54.6 L 364.1 54.6 L 363.9 54.6 L 363.7 54.5 L 363.5 54.5 L 363.3 54.5 L 363.2 54.5 L 363.0 54.5 L 362.8 54.4 L 362.6 54.4 L 362.4 54.4 L 362.2 54.4 L 362.0 54.4 L 361.8 54.4 L 361.6 54.3 L 361.4 54.3 L 361.2 54.3 L 361.0 54.3 L 360.8 54.3 L 360.6 54.3 L 360.4 54.3 L 360.2 54.2 L 360.0 54.2 L 359.8 54.2 L 359.6 54.2 L 359.4 54.2 L 359.2 54.2 L 359.0 54.2 L 358.8 54.2 L 358.6 54.2 L 358.5 54.2 L 358.3 54.1 L 358.1 54.1 L 357.9 54.1 L 357.7 54.1 L 357.5 54.1 L 357.3 54.1 L 357.1 54.1 L 356.9 54.1 L 356.7 54.1 L 356.5 54.1 L 356.3 54.1 L 356.1 54.1 L 355.9 54.1 L 355.7 54.1 L 355.5 54.1 L 355.3 54.1 L 355.1 54.0 L 354.9 54.0 L 354.7 54.0 L 354.5 54.0 L 354.3 54.0 L 354.1 54.0 L 353.9 54.0" stroke="black" stroke-width="2" fill="none"/>
    <path id="pf__path-8-k_2" d="M 392.8 54.0 L 392.6 54.0 L 392.4 54.0 L 392.2 54.0 L 392.0 54.0 L 391.8 54.0 L 391.6 54.0 L 391.4 54.0 L 391.2 54.1 L 391.0 54.1 L 390.8 54.1 L 390.6 54.1 L 390.4 54.1 L 390.2 54.1 L 390.0 54.1 L 389.8 54.1 L 389.6 54.1 L 389.4 54.1 L 389.2 54.1 L 389.0 54.1 L 388.8 54.1 L 388.6 54.1 L 388.4 54.1 L 388.2 54.1 L 388.0 54.2 L 387.9 54.2 L 387.7 54.2 L 387.5 54.2 L 387.3 54.2 L 387.1 54.2 L 386.9 54.2 L 386.7 54.2 L 386.5 54.2 L 386.3 54.2 L 386.1 54.3 L 385.9 54.3 L 385.7 54.3 L 385.5 54.3 L 385.3 54.3 L 385.1 54.3 L 384.9 54.3 L 384.7 54.4 L 384.5 54.4 L 384.3 54.4 L 384.1 54.4 L 383.9 54.4 L 383.7 54.4 L 383.5 54.5 L 383.3 54.5 L 383.2 54.5 L 383.0 54.5 L 382.8 54.5 L 382.6 54.6 L 382.4 54.6 L 382.2 54.6 L 382.0 54.6 L 381.8 54.6 L 381.6 54.7 L 381.4 54.7 L 381.2 54.7 L 381.0 54.7 L 380.8 54.8 L 380.6 54.8 L 380.4 54.8 L 380.2 54.8 L 380.0 54.9 L 379.8 54.9 L 379.6 54.9 L 379.4 54.9 L 379.3 55.0 L 379.1 55.0 L 378.9 55.0 L 378.7 55.0 L 378.5 55.1 L 378.3 55.1 L 378.1 55.1 L 377.9 55.2 L 377.7 55.2 L 377.5 55.2 L 377.3 55.2 L 377.1 55.3 L 376.9 55.3 L 376.7 55.3 L 376.5 55.4 L 376.3 55.4 L 376.1 55.4 L 376.0 55.5 L 375.8 55.5 L 375.6 55.5 L 375.4 55.6 L 375.2 55.6 L 375.0 55.6 L 374.8 55.7 L 374.6 55.7 L 374.4 55.7 L 374.2 55.8 L 374.0 55.8 L 373.8 55.8 L 373.6 55.9 L 373.4 55.9" stroke="black" stroke-width="2" fill="none"/>
    <path id="pf__path-9-k_2" d="M 353.7 154.0 L 354.1 154.1 L 354.5 154.2 L 354.9 154.3 L 355.3 154.3 L 355.7 154.4 L 356.1 154.5 L 356.4 154.5 L 356.8 154.6 L 357.2 154.7 L 357.6 154.7 L 358.0 154.8 L 358.4 154.8 L 358.8 154.9 L 359.2 155.0 L 359.5 155.0 L 359.9 155.1 L 360.3 155.1 L 360.7 155.2 L 361.1 155.2 L 361.5 155.3 L 361.9 155.3 L 362.3 155.4 L 362.7 155.4 L 363.1 155.4 L 363.4 155.5 L 363.8 155.5 L 364.2 155.6 L 364.6 155.6 L 365.0 155.6 L 365.4 155.7 L 365.8 155.7 L 366.2 155.7 L 366.6 155.7 L 367.0 155.8 L 367.4 155.8 L 367.8 155.8 L 368.1 155.8 L 368.5 155.8 L 368.9 155.9 L 369.3 155.9 L 369.7 155.9 L 370.1 155.9 L 370.5 155.9 L 370.9 155.9 L 371.3 155.9 L 371.7 155.9 L 372.1 156.0 L 372.5 156.0 L 372.9 156.0 L 373.2 156.0 L 373.6 156.0 L 374.0 156.0 L 374.4 156.0 L 374.8 155.9 L 375.2 155.9 L 375.6 155.9 L 376.0 155.9 L 376.4 155.9 L 376.8 155.9 L 377.2 155.9 L 377.6 155.9 L 378.0 155.8 L 378.4 155.8 L 378.7 155.8 L 379.1 155.8 L 379.5 155.8 L 379.9 155.7 L 380.3 155.7 L 380.7 155.7 L 381.1 155.7 L 381.5 155.6 L 381.9 155.6 L 382.3 155.6 L 382.7 155.5 L 383.1 155.5 L 383.4 155.4 L 383.8 155.4 L 384.2 155.4 L 384.6 155.3 L 385.0 155.3 L 385.4 155.2 L 385.8 155.2 L 386.2 155.1 L 386.6 155.1 L 387.0 155.0 L 387.3 155.0 L 387.7 154.9 L 388.1 154.8 L 388.5 154.8 L 388.9 154.7 L 389.3 154.7 L 389.7 154.6 L 390.1 154.5 L 390.4 154.5 L 390.8 154.4 L 391.2 154.3 L 391.6 154.3 L 392.0 154.2 L 392.4 154.1" stroke="black" stroke-width="2" fill="none"/>
    <path id="pf__path-10-k_3" d="M 412.3 56.0 L 412.1 55.9 L 411.9 55.9 L 411.7 55.8 L 411.5 55.8 L 411.3 55.8 L 411.1 55.7 L 410.9 55.7 L 410.7 55.7 L 410.5 55.6 L 410.3 55.6 L 410.1 55.6 L 410.0 55.5 L 409.8 55.5 L 409.6 55.5 L 409.4 55.4 L 409.2 55.4 L 409.0 55.4 L 408.8 55.3 L 408.6 55.3 L 408.4 55.3 L 408.2 55.2 L 408.0 55.2 L 407.8 55.2 L 407.6 55.2 L 407.4 55.1 L 407.2 55.1 L 407.0 55.1 L 406.8 55.0 L 406.7 55.0 L 406.5 55.0 L 406.3 55.0 L 406.1 54.9 L 405.9 54.9 L 405.7 54.9 L 405.5 54.9 L 405.3 54.8 L 405.1 54.8 L 404.9 54.8 L 404.7 54.8 L 404.5 54.7 L 404.3 54.7 L 404.1 54.7 L 403.9 54.7 L 403.7 54.6 L 403.5 54.6 L 403.3 54.6 L 403.1 54.6 L 403.0 54.6 L 402.8 54.5 L 402.6 54.5 L 402.4 54.5 L 402.2 54.5 L 402.0 54.5 L 401.8 54.4 L 401.6 54.4 L 401.4 54.4 L 401.2 54.4 L 401.0 54.4 L 400.8 54.4 L 400.6 54.3 L 400.4 54.3 L 400.2 54.3 L 400.0 54.3 L 399.8 54.3 L 399.6 54.3 L 399.4 54.3 L 399.2 54.2 L 399.0 54.2 L 398.8 54.2 L 398.6 54.2 L 398.4 54.2 L 398.3 54.2 L 398.1 54.2 L 397.9 54.2 L 397.7 54.2 L 397.5 54.2 L 397.3 54.1 L 397.1 54.1 L 396.9 54.1 L 396.7 54.1 L 396.5 54.1 L 396.3 54.1 L 396.1 54.1 L 395.9 54.1 L 395.7 54.1 L 395.5 54.1 L 395.3 54.1 L 395.1 54.1 L 394.9 54.1 L 394.7 54.1 L 394.5 54.1 L 394.3 54.1 L 394.1 54.0 L 393.9 54.0 L 393.7 54.0 L 393.5 54.0 L 393.3 54.0 L 393.2 54.0 L 393.0 54.0" stroke="black" stroke-width="2" fill="none"/>
    <path id="pf__path-11-k_3" d="M 431.8 54.0 L 431.6 54.0 L 431.4 54.0 L 431.2 54.0 L 431.0 54.0 L 430.8 54.0 L 430.6 54.0 L 430.4 54.0 L 430.2 54.1 L 430.0 54.1 L 429.8 54.1 L 429.6 54.1 L 429.4 54.1 L 429.2 54.1 L 429.0 54.1 L 428.8 54.1 L 428.6 54.1 L 428.4 54.1 L 428.2 54.1 L 428.0 54.1 L 427.9 54.1 L 427.7 54.1 L 427.5 54.1 L 427.3 54.1 L 427.1 54.2 L 426.9 54.2 L 426.7 54.2 L 426.5 54.2 L 426.3 54.2 L 426.1 54.2 L 425.9 54.2 L 425.7 54.2 L 425.5 54.2 L 425.3 54.2 L 425.1 54.3 L 424.9 54.3 L 424.7 54.3 L 424.5 54.3 L 424.3 54.3 L 424.1 54.3 L 423.9 54.3 L 423.7 54.4 L 423.5 54.4 L 423.3 54.4 L 423.1 54.4 L 423.0 54.4 L 422.8 54.4 L 422.6 54.5 L 422.4 54.5 L 422.2 54.5 L 422.0 54.5 L 421.8 54.5 L 421.6 54.6 L 421.4 54.6 L 421.2 54.6 L 421.0 54.6 L 420.8 54.6 L 420.6 54.7 L 420.4 54.7 L 420.2 54.7 L 420.0 54.7 L 419.8 54.8 L 419.6 54.8 L 419.4 54.8 L 419.2 54.8 L 419.0 54.9 L 418.9 54.9 L 418.7 54.9 L 418.5 54.9 L 418.3 55.0 L 418.1 55.0 L 417.9 55.0 L 417.7 55.0 L 417.5 55.1 L 417.3 55.1 L 417.1 55.1 L 416.9 55.2 L 416.7 55.2 L 416.5 55.2 L 416.3 55.2 L 416.1 55.3 L 415.9 55.3 L 415.7 55.3 L 415.6 55.4 L 415.4 55.4 L 415.2 55.4 L 415.0 55.5 L 414.8 55.5 L 414.6 55.5 L 414.4 55.6 L 414.2 55.6 L 414.0 55.6 L 413.8 55.7 L 413.6 55.7 L 413.4 55.7 L 413.2 55.8 L 413.0 55.8 L 412.8 55.8 L 412.7 55.9 L 412.5 55.9" stroke="black" stroke-width="2" fill="none"/>
    <path id="pf__path-12-k_3" d="M 392.8 154.0 L 393.1 154.1 L 393.5 154.2 L 393.9 154.3 L 394.3 154.3 L 394.7 154.4 L 395.1 154.5 L 395.5 154.5 L 395.8 154.6 L 396.2 154.7 L 396.6 154.7 L 397.0 154.8 L 397.4 154.8 L 397.8 154.9 L 398.2 155.0 L 398.6 155.0 L 399.0 155.1 L 399.3 155.1 L 399.7 155.2 L 400.1 155.2 L 400.5 155.3 L 400.9 155.3 L 401.3 155.4 L 401.7 155.4 L 402.1 155.4 L 402.5 155.5 L 402.9 155.5 L 403.2 155.6 L 403.6 155.6 L 404.0 155.6 L 404.4 155.7 L 404.8 155.7 L 405.2 155.7 L 405.6 155.7 L 406.0 155.8 L 406.4 155.8 L 406.8 155.8 L 407.2 155.8 L 407.6 155.8 L 407.9 155.9 L 408.3 155.9 L 408.7 155.9 L 409.1 155.9 L 409.5 155.9 L 409.9 155.9 L 410.3 155.9 L 410.7 155.9 L 411.1 156.0 L 411.5 156.0 L 411.9 156.0 L 412.3 156.0 L 412.7 156.0 L 413.1 156.0 L 413.4 156.0 L 413.8 155.9 L 414.2 155.9 L 414.6 155.9 L 415.0 155.9 L 415.4 155.9 L 415.8 155.9 L 416.2 155.9 L 416.6 155.9 L 417.0 155.8 L 417.4 155.8 L 417.8 155.8 L 418.2 155.8 L 418.5 155.8 L 418.9 155.7 L 419.3 155.7 L 419.7 155.7 L 420.1 155.7 L 420.5 155.6 L 420.9 155.6 L 421.3 155.6 L 421.7 155.5 L 422.1 155.5 L 422.5 155.4 L 422.9 155.4 L 423.2 155.4 L 423.6 155.3 L 424.0 155.3 L 424.4 155.2 L 424.8 155.2 L 425.2 155.1 L 425.6 155.1 L 426.0 155.0 L 426.4 155.0 L 426.7 154.9 L 427.1 154.8 L 427.5 154.8 L 427.9 154.7 L 428.3 154.7 L 428.7 154.6 L 429.1 154.5 L 429.5 154.5 L 429.8 154.4 L 430.2 154.3 L 430.6 154.3 L 431.0 154.2 L 431.4 154.1" stroke="black" stroke-width="2" fill="none"/>
    <path id="pf__path-13-k_4" d="M 451.3 56.0 L 451.1 55.9 L 450.9 55.9 L 450.7 55.8 L 450.5 55.8 L 450.3 55.8 L 450.1 55.7 L 449.9 55.7 L 449.7 55.7 L 449.5 55.6 L 449.4 55.6 L 449.2 55.6 L 449.0 55.5 L 448.8 55.5 L 448.6 55.5 L 448.4 55.4 L 448.2 55.4 L 448.0 55.4 L 447.8 55.3 L 447.6 55.3 L 447.4 55.3 L 447.2 55.2 L 447.0 55.2 L 446.8 55.2 L 446.6 55.2 L 446.4 55.1 L 446.3 55.1 L 446.1 55.1 L 445.9 55.0 L 445.7 55.0 L 445.5 55.0 L 445.3 55.0 L 445.1 54.9 L 444.9 54.9 L 444.7 54.9 L 444.5 54.9 L 444.3 54.8 L 444.1 54.8 L 443.9 54.8 L 443.7 54.8 L 443.5 54.7 L 443.3 54.7 L 443.1 54.7 L 442.9 54.7 L 442.8 54.6 L 442.6 54.6 L 442.4 54.6 L 442.2 54.6 L 442.0 54.6 L 441.8 54.5 L 441.6 54.5 L 441.4 54.5 L 441.2 54.5 L 441.0 54.5 L 440.8 54.4 L 440.6 54.4 L 440.4 54.4 L 440.2 54.4 L 440.0 54.4 L 439.8 54.4 L 439.6 54.3 L 439.4 54.3 L 439.2 54.3 L 439.0 54.3 L 438.8 54.3 L 438.6 54.3 L 438.4 54.3 L 438.3 54.2 L 438.1 54.2 L 437.9 54.2 L 437.7 54.2 L 437.5 54.2 L 437.3 54.2 L 437.1 54.2 L 436.9 54.2 L 436.7 54.2 L 436.5 54.2 L 436.3 54.1 L 436.1 54.1 L 435.9 54.1 L 435.7 54.1 L 435.5 54.1 L 435.3 54.1 L 435.1 54.1 L 434.9 54.1 L 434.7 54.1 L 434.5 54.1 L 434.3 54.1 L 434.1 54.1 L 433.9 54.1 L 433.7 54.1 L 433.5 54.1 L 433.3 54.1 L 433.2 54.0 L 433.0 54.0 L 432.8 54.0 L 432.6 54.0 L 432.4 54.0 L 432.2 54.0 L 432.0 54.0" stroke="black" stroke-width="2" fill="none"/>
    <path id="pf__path-14-k_4" d="M 470.8 54.0 L 470.6 54.0 L 470.4 54.0 L 470.2 54.0 L 470.0 54.0 L 469.8 54.0 L 469.6 54.0 L 469.4 54.0 L 469.2 54.1 L 469.0 54.1 L 468.8 54.1 L 468.6 54.1 L 468.4 54.1 L 468.2 54.1 L 468.0 54.1 L 467.8 54.1 L 467.7 54.1 L 467.5 54.1 L 467.3 54.1 L 467.1 54.1 L 466.9 54.1 L 466.7 54.1 L 466.5 54.1 L 466.3 54.1 L 466.1 54.2 L 465.9 54.2 L 465.7 54.2 L 465.5 54.2 L 465.3 54.2 L 465.1 54.2 L 464.9 54.2 L 464.7 54.2 L 464.5 54.2 L 464.3 54.2 L 464.1 54.3 L 463.9 54.3 L 463.7 54.3 L 463.5 54.3 L 463.3 54.3 L 463.1 54.3 L 462.9 54.3 L 462.8 54.4 L 462.6 54.4 L 462.4 54.4 L 462.2 54.4 L 462.0 54.4 L 461.8 54.4 L 461.6 54.5 L 461.4 54.5 L 461.2 54.5 L 461.0 54.5 L 460.8 54.5 L 460.6 54.6 L 460.4 54.6 L 460.2 54.6 L 460.0 54.6 L 459.8 54.6 L 459.6 54.7 L 459.4 54.7 L 459.2 54.7 L 459.0 54.7 L 458.8 54.8 L 458.7 54.8 L 458.5 54.8 L 458.3 54.8 L 458.1 54.9 L 457.9 54.9 L 457.7 54.9 L 457.5 54.9 L 457.3 55.0 L 457.1 55.0 L 456.9 55.0 L 456.7 55.0 L 456.5 55.1 L 456.3 55.1 L 456.1 55.1 L 455.9 55.2 L 455.7 55.2 L 455.5 55.2 L 455.3 55.2 L 455.2 55.3 L 455.0 55.3 L 454.8 55.3 L 454.6 55.4 L 454.4 55.4 L 454.2 55.4 L 454.0 55.5 L 453.8 55.5 L 453.6 55.5 L 453.4 55.6 L 453.2 55.6 L 453.0 55.6 L 452.8 55.7 L 452.6 55.7 L 452.4 55.7 L 452.2 55.8 L 452.1 55.8 L 451.9 55.8 L 451.7 55.9 L 451.5 55.9" stroke="black" stroke-width="2" fill="none"/>
    <path id="pf__path-15-k_4" d="M 431.8 154.0 L 432.2 154.1 L 432.5 154.2 L 432.9 154.3 L 433.3 154.3 L 433.7 154.4 L 434.1 154.5 L 434.5 154.5 L 434.9 154.6 L 435.3 154.7 L 435.6 154.7 L 436.0 154.8 L 436.4 154.8 L 436.8 154.9 L 437.2 155.0 L 437.6 155.0 L 438.0 155.1 L 438.4 155.1 L 438.8 155.2 L 439.1 155.2 L 439.5 155.3 L 439.9 155.3 L 440.3 155.4 L 440.7 155.4 L 441.1 155.4 L 441.5 155.5 L 441.9 155.5 L 442.3 155.6 L 442.7 155.6 L 443.0 155.6 L 443.4 155.7 L 443.8 155.7 L 444.2 155.7 L 444.6 155.7 L 445.0 155.8 L 445.4 155.8 L 445.8 155.8 L 446.2 155.8 L 446.6 155.8 L 447.0 155.9 L 447.4 155.9 L 447.8 155.9 L 448.1 155.9 L 448.5 155.9 L 448.9 155.9 L 449.3 155.9 L 449.7 155.9 L 450.1 156.0 L 450.5 156.0 L 450.9 156.0 L 451.3 156.0 L 451.7 156.0 L 452.1 156.0 L 452.5 156.0 L 452.9 155.9 L 453.2 155.9 L 453.6 155.9 L 454.0 155.9 L 454.4 155.9 L 454.8 155.9 L 455.2 155.9 L 455.6 155.9 L 456.0 155.8 L 456.4 155.8 L 456.8 155.8 L 457.2 155.8 L 457.6 155.8 L 458.0 155.7 L 458.3 155.7 L 458.7 155.7 L 459.1 155.7 L 459.5 155.6 L 459.9 155.6 L 460.3 155.6 L 460.7 155.5 L 461.1 155.5 L 461.5 155.4 L 461.9 155.4 L 462.3 155.4 L 462.6 155.3 L 463.0 155.3 L 463.4 155.2 L 463.8 155.2 L 464.2 155.1 L 464.6 155.1 L 465.0 155.0 L 465.4 155.0 L 465.8 154.9 L 466.2 154.8 L 466.5 154.8 L 466.9 154.7 L 467.3 154.7 L 467.7 154.6 L 468.1 154.5 L 468.5 154.5 L 468.9 154.4 L 469.3 154.3 L 469.6 154.3 L 470.0 154.2 L 470.4 154.1" stroke="black" stroke-width="2" fill="none"/>
    <path id="pf__path-16-k_5" d="M 490.3 56.0 L 490.1 55.9 L 489.9 55.9 L 489.7 55.8 L 489.5 55.8 L 489.3 55.8 L 489.1 55.7 L 489.0 55.7 L 488.8 55.7 L 488.6 55.6 L 488.4 55.6 L 488.2 55.6 L 488.0 55.5 L 487.8 55.5 L 487.6 55.5 L 487.4 55.4 L 487.2 55.4 L 487.0 55.4 L 486.8 55.3 L 486.6 55.3 L 486.4 55.3 L 486.2 55.2 L 486.1 55.2 L 485.9 55.2 L 485.7 55.2 L 485.5 55.1 L 485.3 55.1 L 485.1 55.1 L 484.9 55.0 L 484.7 55.0 L 484.5 55.0 L 484.3 55.0 L 484.1 54.9 L 483.9 54.9 L 483.7 54.9 L 483.5 54.9 L 483.3 54.8 L 483.1 54.8 L 482.9 54.8 L 482.7 54.8 L 482.5 54.7 L 482.4 54.7 L 482.2 54.7 L 482.0 54.7 L 481.8 54.6 L 481.6 54.6 L 481.4 54.6 L 481.2 54.6 L 481.0 54.6 L 480.8 54.5 L 480.6 54.5 L 480.4 54.5 L 480.2 54.5 L 480.0 54.5 L 479.8 54.4 L 479.6 54.4 L 479.4 54.4 L 479.2 54.4 L 479.0 54.4 L 478.8 54.4 L 478.6 54.3 L 478.4 54.3 L 478.2 54.3 L 478.1 54.3 L 477.9 54.3 L 477.7 54.3 L 477.5 54.3 L 477.3 54.2 L 477.1 54.2 L 476.9 54.2 L 476.7 54.2 L 476.5 54.2 L 476.3 54.2 L 476.1 54.2 L 475.9 54.2 L 475.7 54.2 L 475.5 54.2 L 475.3 54.1 L 475.1 54.1 L 474.9 54.1 L 474.7 54.1 L 474.5 54.1 L 474.3 54.1 L 474.1 54.1 L 473.9 54.1 L 473.7 54.1 L 473.5 54.1 L 473.3 54.1 L 473.2 54.1 L 473.0 54.1 L 472.8 54.1 L 472.6 54.1 L 472.4 54.1 L 472.2 54.0 L 472.0 54.0 L 471.8 54.0 L 471.6 54.0 L 471.4 54.0 L 471.2 54.0 L 471.0 54.0" stroke="black" stroke-width="2" fill="none"/>
    <path id="pf__path-17-k_5" d="M 509.8 54.0 L 509.6 54.0 L 509.4 54.0 L 509.2 54.0 L 509.0 54.0 L 508.8 54.0 L 508.6 54.0 L 508.4 54.0 L 508.2 54.1 L 508.0 54.1 L 507.8 54.1 L 507.7 54.1 L 507.5 54.1 L 507.3 54.1 L 507.1 54.1 L 506.9 54.1 L 506.7 54.1 L 506.5 54.1 L 506.3 54.1 L 506.1 54.1 L 505.9 54.1 L 505.7 54.1 L 505.5 54.1 L 505.3 54.1 L 505.1 54.2 L 504.9 54.2 L 504.7 54.2 L 504.5 54.2 L 504.3 54.2 L 504.1 54.2 L 503.9 54.2 L 503.7 54.2 L 503.5 54.2 L 503.3 54.2 L 503.1 54.3 L 502.9 54.3 L 502.8 54.3 L 502.6 54.3 L 502.4 54.3 L 502.2 54.3 L 502.0 54.3 L 501.8 54.4 L 501.6 54.4 L 501.4 54.4 L 501.2 54.4 L 501.0 54.4 L 500.8 54.4 L 500.6 54.5 L 500.4 54.5 L 500.2 54.5 L 500.0 54.5 L 499.8 54.5 L 499.6 54.6 L 499.4 54.6 L 499.2 54.6 L 499.0 54.6 L 498.8 54.6 L 498.6 54.7 L 498.4 54.7 L 498.3 54.7 L 498.1 54.7 L 497.9 54.8 L 497.7 54.8 L 497.5 54.8 L 497.3 54.8 L 497.1 54.9 L 496.9 54.9 L 496.7 54.9 L 496.5 54.9 L 496.3 55.0 L 496.1 55.0 L 495.9 55.0 L 495.7 55.0 L 495.5 55.1 L 495.3 55.1 L 495.1 55.1 L 494.9 55.2 L 494.8 55.2 L 494.6 55.2 L 494.4 55.2 L 494.2 55.3 L 494.0 55.3 L 493.8 55.3 L 493.6 55.4 L 493.4 55.4 L 493.2 55.4 L 493.0 55.5 L 492.8 55.5 L 492.6 55.5 L 492.4 55.6 L 492.2 55.6 L 492.0 55.6 L 491.8 55.7 L 491.7 55.7 L 491.5 55.7 L 491.3 55.8 L 491.1 55.8 L 490.9 55.8 L 490.7 55.9 L 490.5 55.9" stroke="black" stroke-width="2" fill="none"/>
    <path id="pf__path-18-k_5" d="M 470.8 154.0 L 471.2 154.1 L 471.6 154.2 L 472.0 154.3 L 472.3 154.3 L 472.7 154.4 L 473.1 154.5 L 473.5 154.5 L 473.9 154.6 L 474.3 154.7 L 474.7 154.7 L 475.0 154.8 L 475.4 154.8 L 475.8 154.9 L 476.2 155.0 L 476.6 155.0 L 477.0 155.1 L 477.4 155.1 L 477.8 155.2 L 478.2 155.2 L 478.6 155.3 L 478.9 155.3 L 479.3 155.4 L 479.7 155.4 L 480.1 155.4 L 480.5 155.5 L 480.9 155.5 L 481.3 155.6 L 481.7 155.6 L 482.1 155.6 L 482.5 155.7 L 482.8 155.7 L 483.2 155.7 L 483.6 155.7 L 484.0 155.8 L 484.4 155.8 L 484.8 155.8 L 485.2 155.8 L 485.6 155.8 L 486.0 155.9 L 486.4 155.9 L 486.8 155.9 L 487.2 155.9 L 487.6 155.9 L 487.9 155.9 L 488.3 155.9 L 488.7 155.9 L 489.1 156.0 L 489.5 156.0 L 489.9 156.0 L 490.3 156.0 L 490.7 156.0 L 491.1 156.0 L 491.5 156.0 L 491.9 155.9 L 492.3 155.9 L 492.7 155.9 L 493.1 155.9 L 493.4 155.9 L 493.8 155.9 L 494.2 155.9 L 494.6 155.9 L 495.0 155.8 L 495.4 155.8 L 495.8 155.8 L 496.2 155.8 L 496.6 155.8 L 497.0 155.7 L 497.4 155.7 L 497.8 155.7 L 498.1 155.7 L 498.5 155.6 L 498.9 155.6 L 499.3 155.6 L 499.7 155.5 L 500.1 155.5 L 500.5 155.4 L 500.9 155.4 L 501.3 155.4 L 501.7 155.3 L 502.1 155.3 L 502.4 155.2 L 502.8 155.2 L 503.2 155.1 L 503.6 155.1 L 504.0 155.0 L 504.4 155.0 L 504.8 154.9 L 505.2 154.8 L 505.6 154.8 L 505.9 154.7 L 506.3 154.7 L 506.7 154.6 L 507.1 154.5 L 507.5 154.5 L 507.9 154.4 L 508.3 154.3 L 508.7 154.3 L 509.0 154.2 L 509.4 154.1" stroke="black" stroke-width="2" fill="none"/>
    <path id="pf__path-19-k_6" d="M 529.3 56.0 L 529.1 55.9 L 528.9 55.9 L 528.7 55.8 L 528.6 55.8 L 528.4 55.8 L 528.2 55.7 L 528.0 55.7 L 527.8 55.7 L 527.6 55.6 L 527.4 55.6 L 527.2 55.6 L 527.0 55.5 L 526.8 55.5 L 526.6 55.5 L 526.4 55.4 L 526.2 55.4 L 526.0 55.4 L 525.8 55.3 L 525.7 55.3 L 525.5 55.3 L 525.3 55.2 L 525.1 55.2 L 524.9 55.2 L 524.7 55.2 L 524.5 55.1 L 524.3 55.1 L 524.1 55.1 L 523.9 55.0 L 523.7 55.0 L 523.5 55.0 L 523.3 55.0 L 523.1 54.9 L 522.9 54.9 L 522.7 54.9 L 522.5 54.9 L 522.3 54.8 L 522.2 54.8 L 522.0 54.8 L 521.8 54.8 L 521.6 54.7 L 521.4 54.7 L 521.2 54.7 L 521.0 54.7 L 520.8 54.6 L 520.6 54.6 L 520.4 54.6 L 520.2 54.6 L 520.0 54.6 L 519.8 54.5 L 519.6 54.5 L 519.4 54.5 L 519.2 54.5 L 519.0 54.5 L 518.8 54.4 L 518.6 54.4 L 518.4 54.4 L 518.2 54.4 L 518.1 54.4 L 517.9 54.4 L 517.7 54.3 L 517.5 54.3 L 517.3 54.3 L 517.1 54.3 L 516.9 54.3 L 516.7 54.3 L 516.5 54.3 L 516.3 54.2 L 516.1 54.2 L 515.9 54.2 L 515.7 54.2 L 515.5 54.2 L 515.3 54.2 L 515.1 54.2 L 514.9 54.2 L 514.7 54.2 L 514.5 54.2 L 514.3 54.1 L 514.1 54.1 L 513.9 54.1 L 513.7 54.1 L 513.5 54.1 L 513.3 54.1 L 513.2 54.1 L 513.0 54.1 L 512.8 54.1 L 512.6 54.1 L 512.4 54.1 L 512.2 54.1 L 512.0 54.1 L 511.8 54.1 L 511.6 54.1 L 511.4 54.1 L 511.2 54.0 L 511.0 54.0 L 510.8 54.0 L 510.6 54.0 L 510.4 54.0 L 510.2 54.0 L 510.0 54.0" stroke="black" stroke-width="2" fill="none"/>
    <path id="pf__path-20-k_6" d="M 548.8 54.0 L 548.6 54.0 L 548.4 54.0 L 548.2 54.0 L 548.0 54.0 L 547.8 54.0 L 547.7 54.0 L 547.5 54.0 L 547.3 54.1 L 547.1 54.1 L 546.9 54.1 L 546.7 54.1 L 546.5 54.1 L 546.3 54.1 L 546.1 54.1 L 545.9 54.1 L 545.7 54.1 L 545.5 54.1 L 545.3 54.1 L 545.1 54.1 L 544.9 54.1 L 544.7 54.1 L 544.5 54.1 L 544.3 54.1 L 544.1 54.2 L 543.9 54.2 L 543.7 54.2 L 543.5 54.2 L 543.3 54.2 L 543.1 54.2 L 542.9 54.2 L 542.7 54.2 L 542.6 54.2 L 542.4 54.2 L 542.2 54.3 L 542.0 54.3 L 541.8 54.3 L 541.6 54.3 L 541.4 54.3 L 541.2 54.3 L 541.0 54.3 L 540.8 54.4 L 540.6 54.4 L 540.4 54.4 L 540.2 54.4 L 540.0 54.4 L 539.8 54.4 L 539.6 54.5 L 539.4 54.5 L 539.2 54.5 L 539.0 54.5 L 538.8 54.5 L 538.6 54.6 L 538.4 54.6 L 538.2 54.6 L 538.1 54.6 L 537.9 54.6 L 537.7 54.7 L 537.5 54.7 L 537.3 54.7 L 537.1 54.7 L 536.9 54.8 L 536.7 54.8 L 536.5 54.8 L 536.3 54.8 L 536.1 54.9 L 535.9 54.9 L 535.7 54.9 L 535.5 54.9 L 535.3 55.0 L 535.1 55.0 L 534.9 55.0 L 534.7 55.0 L 534.5 55.1 L 534.4 55.1 L 534.2 55.1 L 534.0 55.2 L 533.8 55.2 L 533.6 55.2 L 533.4 55.2 L 533.2 55.3 L 533.0 55.3 L 532.8 55.3 L 532.6 55.4 L 532.4 55.4 L 532.2 55.4 L 532.0 55.5 L 531.8 55.5 L 531.6 55.5 L 531.4 55.6 L 531.3 55.6 L 531.1 55.6 L 530.9 55.7 L 530.7 55.7 L 530.5 55.7 L 530.3 55.8 L 530.1 55.8 L 529.9 55.8 L 529.7 55.9 L 529.5 55.9" stroke="black" stroke-width="2" fill="none"/>
    <path id="pf__path-21-k_6" d="M 509.8 154.0 L 510.2 154.1 L 510.6 154.2 L 511.0 154.3 L 511.4 154.3 L 511.7 154.4 L 512.1 154.5 L 512.5 154.5 L 512.9 154.6 L 513.3 154.7 L 513.7 154.7 L 514.1 154.8 L 514.5 154.8 L 514.8 154.9 L 515.2 155.0 L 515.6 155.0 L 516.0 155.1 L 516.4 155.1 L 516.8 155.2 L 517.2 155.2 L 517.6 155.3 L 518.0 155.3 L 518.3 155.4 L 518.7 155.4 L 519.1 155.4 L 519.5 155.5 L 519.9 155.5 L 520.3 155.6 L 520.7 155.6 L 521.1 155.6 L 521.5 155.7 L 521.9 155.7 L 522.3 155.7 L 522.7 155.7 L 523.0 155.8 L 523.4 155.8 L 523.8 155.8 L 524.2 155.8 L 524.6 155.8 L 525.0 155.9 L 525.4 155.9 L 525.8 155.9 L 526.2 155.9 L 526.6 155.9 L 527.0 155.9 L 527.4 155.9 L 527.8 155.9 L 528.1 156.0 L 528.5 156.0 L 528.9 156.0 L 529.3 156.0 L 529.7 156.0 L 530.1 156.0 L 530.5 156.0 L 530.9 155.9 L 531.3 155.9 L 531.7 155.9 L 532.1 155.9 L 532.5 155.9 L 532.9 155.9 L 533.2 155.9 L 533.6 155.9 L 534.0 155.8 L 534.4 155.8 L 534.8 155.8 L 535.2 155.8 L 535.6 155.8 L 536.0 155.7 L 536.4 155.7 L 536.8 155.7 L 537.2 155.7 L 537.6 155.6 L 538.0 155.6 L 538.3 155.6 L 538.7 155.5 L 539.1 155.5 L 539.5 155.4 L 539.9 155.4 L 540.3 155.4 L 540.7 155.3 L 541.1 155.3 L 541.5 155.2 L 541.9 155.2 L 542.2 155.1 L 542.6 155.1 L 543.0 155.0 L 543.4 155.0 L 543.8 154.9 L 544.2 154.8 L 544.6 154.8 L 545.0 154.7 L 545.4 154.7 L 545.7 154.6 L 546.1 154.5 L 546.5 154.5 L 546.9 154.4 L 547.3 154.3 L 547.7 154.3 L 548.1 154.2 L 548.4 154.1" stroke="black" stroke-width="2" fill="none"/>
    <path id="pf__path-22-k_7" d="M 568.3 56.0 L 568.1 55.9 L 568.0 55.9 L 567.8 55.8 L 567.6 55.8 L 567.4 55.8 L 567.2 55.7 L 567.0 55.7 L 566.8 55.7 L 566.6 55.6 L 566.4 55.6 L 566.2 55.6 L 566.0 55.5 L 565.8 55.5 L 565.6 55.5 L 565.4 55.4 L 565.2 55.4 L 565.1 55.4 L 564.9 55.3 L 564.7 55.3 L 564.5 55.3 L 564.3 55.2 L 564.1 55.2 L 563.9 55.2 L 563.7 55.2 L 563.5 55.1 L 563.3 55.1 L 563.1 55.1 L 562.9 55.0 L 562.7 55.0 L 562.5 55.0 L 562.3 55.0 L 562.1 54.9 L 561.9 54.9 L 561.8 54.9 L 561.6 54.9 L 561.4 54.8 L 561.2 54.8 L 561.0 54.8 L 560.8 54.8 L 560.6 54.7 L 560.4 54.7 L 560.2 54.7 L 560.0 54.7 L 559.8 54.6 L 559.6 54.6 L 559.4 54.6 L 559.2 54.6 L 559.0 54.6 L 558.8 54.5 L 558.6 54.5 L 558.4 54.5 L 558.2 54.5 L 558.0 54.5 L 557.9 54.4 L 557.7 54.4 L 557.5 54.4 L 557.3 54.4 L 557.1 54.4 L 556.9 54.4 L 556.7 54.3 L 556.5 54.3 L 556.3 54.3 L 556.1 54.3 L 555.9 54.3 L 555.7 54.3 L 555.5 54.3 L 555.3 54.2 L 555.1 54.2 L 554.9 54.2 L 554.7 54.2 L 554.5 54.2 L 554.3 54.2 L 554.1 54.2 L 553.9 54.2 L 553.7 54.2 L 553.5 54.2 L 553.3 54.1 L 553.1 54.1 L 553.0 54.1 L 552.8 54.1 L 552.6 54.1 L 552.4 54.1 L 552.2 54.1 L 552.0 54.1 L 551.8 54.1 L 551.6 54.1 L 551.4 54.1 L 551.2 54.1 L 551.0 54.1 L 550.8 54.1 L 550.6 54.1 L 550.4 54.1 L 550.2 54.0 L 550.0 54.0 L 549.8 54.0 L 549.6 54.0 L 549.4 54.0 L 549.2 54.0 L 549.0 54.0" stroke="black" stroke-width="2" fill="none"/>
    <path id="pf__path-23-k_7" d="M 587.8 54.0 L 587.7 54.0 L 587.5 54.0 L 587.3 54.0 L 587.1 54.0 L 586.9 54.0 L 586.7 54.0 L 586.5 54.0 L 586.3 54.1 L 586.1 54.1 L 585.9 54.1 L 585.7 54.1 L 585.5 54.1 L 585.3 54.1 L 585.1 54.1 L 584.9 54.1 L 584.7 54.1 L 584.5 54.1 L 584.3 54.1 L 584.1 54.1 L 583.9 54.1 L 583.7 54.1 L 583.5 54.1 L 583.3 54.1 L 583.1 54.2 L 582.9 54.2 L 582.7 54.2 L 582.5 54.2 L 582.4 54.2 L 582.2 54.2 L 582.0 54.2 L 581.8 54.2 L 581.6 54.2 L 581.4 54.2 L 581.2 54.3 L 581.0 54.3 L 580.8 54.3 L 580.6 54.3 L 580.4 54.3 L 580.2 54.3 L 580.0 54.3 L 579.8 54.4 L 579.6 54.4 L 579.4 54.4 L 579.2 54.4 L 579.0 54.4 L 578.8 54.4 L 578.6 54.5 L 578.4 54.5 L 578.2 54.5 L 578.0 54.5 L 577.9 54.5 L 577.7 54.6 L 577.5 54.6 L 577.3 54.6 L 577.1 54.6 L 576.9 54.6 L 576.7 54.7 L 576.5 54.7 L 576.3 54.7 L 576.1 54.7 L 575.9 54.8 L 575.7 54.8 L 575.5 54.8 L 575.3 54.8 L 575.1 54.9 L 574.9 54.9 L 574.7 54.9 L 574.5 54.9 L 574.3 55.0 L 574.1 55.0 L 574.0 55.0 L 573.8 55.0 L 573.6 55.1 L 573.4 55.1 L 573.2 55.1 L 573.0 55.2 L 572.8 55.2 L 572.6 55.2 L 572.4 55.2 L 572.2 55.3 L 572.0 55.3 L 571.8 55.3 L 571.6 55.4 L 571.4 55.4 L 571.2 55.4 L 571.0 55.5 L 570.8 55.5 L 570.7 55.5 L 570.5 55.6 L 570.3 55.6 L 570.1 55.6 L 569.9 55.7 L 569.7 55.7 L 569.5 55.7 L 569.3 55.8 L 569.1 55.8 L 568.9 55.8 L 568.7 55.9 L 568.5 55.9" stroke="black" stroke-width="2" fill="none"/>
    <path id="pf__path-24-k_7" d="M 548.8 154.0 L 549.2 154.1 L 549.6 154.2 L 550.0 154.3 L 550.4 154.3 L 550.8 154.4 L 551.1 154.5 L 551.5 154.5 L 551.9 154.6 L 552.3 154.7 L 552.7 154.7 L 553.1 154.8 L 553.5 154.8 L 553.9 154.9 L 554.2 155.0 L 554.6 155.0 L 555.0 155.1 L 555.4 155.1 L 555.8 155.2 L 556.2 155.2 L 556.6 155.3 L 557.0 155.3 L 557.4 155.4 L 557.8 155.4 L 558.1 155.4 L 558.5 155.5 L 558.9 155.5 L 559.3 155.6 L 559.7 155.6 L 560.1 155.6 L 560.5 155.7 L 560.9 155.7 L 561.3 155.7 L 561.7 155.7 L 562.1 155.8 L 562.5 155.8 L 562.8 155.8 L 563.2 155.8 L 563.6 155.8 L 564.0 155.9 L 564.4 155.9 L 564.8 155.9 L 565.2 155.9 L 565.6 155.9 L 566.0 155.9 L 566.4 155.9 L 566.8 155.9 L 567.2 156.0 L 567.6 156.0 L 567.9 156.0 L 568.3 156.0 L 568.7 156.0 L 569.1 156.0 L 569.5 156.0 L 569.9 155.9 L 570.3 155.9 L 570.7 155.9 L 571.1 155.9 L 571.5 155.9 L 571.9 155.9 L 572.3 155.9 L 572.7 155.9 L 573.1 155.8 L 573.4 155.8 L 573.8 155.8 L 574.2 155.8 L 574.6 155.8 L 575.0 155.7 L 575.4 155.7 L 575.8 155.7 L 576.2 155.7 L 576.6 155.6 L 577.0 155.6 L 577.4 155.6 L 577.8 155.5 L 578.1 155.5 L 578.5 155.4 L 578.9 155.4 L 579.3 155.4 L 579.7 155.3 L 580.1 155.3 L 580.5 155.2 L 580.9 155.2 L 581.3 155.1 L 581.7 155.1 L 582.0 155.0 L 582.4 155.0 L 582.8 154.9 L 583.2 154.8 L 583.6 154.8 L 584.0 154.7 L 584.4 154.7 L 584.8 154.6 L 585.1 154.5 L 585.5 154.5 L 585.9 154.4 L 586.3 154.3 L 586.7 154.3 L 587.1 154.2 L 587.5 154.1" stroke="black" stroke-width="2" fill="none"/>
  </g>
</svg>
