<svg xmlns="http://www.w3.org/2000/svg" id="pf__figure" width="610" height="210" viewBox="0 0 610 210">
  <defs>
    <clipPath id="pf__clipPath-0">
      <rect x="5.0" y="5.0" width="600.0" height="200.0"/>
    </clipPath>
    <clipPath id="pf__clipPath-1">
      <rect x="5.0" y="5.0" width="600.0" height="200.0"/>
    </clipPath>
  </defs>
  <line id="pf__line-0" x1="290.4" y1="140.4" x2="290.4" y2="40.4" stroke="#777" stroke-width="1" fill="none"/>
  <line id="pf__line-1" x1="573.2" y1="140.4" x2="573.2" y2="40.4" stroke="#777" stroke-width="1" fill="none"/>
  <g id="pf__g-0">
    <line id="pf__line-2-k_0" x1="205.0" y1="105.0" x2="5.0" y2="105.0" stroke="#777" stroke-width="1" fill="none"/>
    <line id="pf__line-3-k_1" x1="105.0" y1="5.0" x2="105.0" y2="205.0" stroke="#777" stroke-width="1" fill="none"/>
  </g>
  <path id="pf__path-0" d="M 205.0 105.0 L 204.8 98.7 L 204.2 92.5 L 203.2 86.3 L 201.9 80.1 L 200.1 74.1 L 198.0 68.2 L 195.5 62.4 L 192.6 56.8 L 189.4 51.4 L 185.9 46.2 L 182.1 41.3 L 177.9 36.5 L 173.5 32.1 L 168.7 27.9 L 163.8 24.1 L 158.6 20.6 L 153.2 17.4 L 147.6 14.5 L 141.8 12.0 L 135.9 9.9 L 129.9 8.1 L 123.7 6.8 L 117.5 5.8 L 111.3 5.2 L 105.0 5.0 L 98.7 5.2 L 92.5 5.8 L 86.3 6.8 L 80.1 8.1 L 74.1 9.9 L 68.2 12.0 L 62.4 14.5 L 56.8 17.4 L 51.4 20.6 L 46.2 24.1 L 41.3 27.9 L 36.5 32.1 L 32.1 36.5 L 27.9 41.3 L 24.1 46.2 L 20.6 51.4 L 17.4 56.8 L 14.5 62.4 L 12.0 68.2 L 9.9 74.1 L 8.1 80.1 L 6.8 86.3 L 5.8 92.5 L 5.2 98.7 L 5.0 105.0 L 5.2 111.3 L 5.8 117.5 L 6.8 123.7 L 8.1 129.9 L 9.9 135.9 L 12.0 141.8 L 14.5 147.6 L 17.4 153.2 L 20.6 158.6 L 24.1 163.8 L 27.9 168.7 L 32.1 173.5 L 36.5 177.9 L 41.3 182.1 L 46.2 185.9 L 51.4 189.4 L 56.8 192.6 L 62.4 195.5 L 68.2 198.0 L 74.1 200.1 L 80.1 201.9 L 86.3 203.2 L 92.5 204.2 L 98.7 204.8 L 105.0 205.0 L 111.3 204.8 L 117.5 204.2 L 123.7 203.2 L 129.9 201.9 L 135.9 200.1 L 141.8 198.0 L 147.6 195.5 L 153.2 192.6 L 158.6 189.4 L 163.8 185.9 L 168.7 182.1 L 173.5 177.9 L 177.9 173.5 L 182.1 168.7 L 185.9 163.8 L 189.4 158.6 L 192.6 153.2 L 195.5 147.6 L 198.0 141.8 L 200.1 135.9 L 201.9 129.9 L 203.2 123.7 L 204.2 117.5 L 204.8 111.3 Z" stroke="black" stroke-width="2" fill="none"/>
  <g id="pf__g-1">
    <line id="pf__line-4-k_1" x1="431.8" y1="140.4" x2="361.1" y2="69.6" stroke="#777" stroke-width="1" fill="none"/>
    <line id="pf__line-5-k_2" x1="573.2" y1="140.4" x2="502.5" y2="69.6" stroke="#777" stroke-width="1" fill="none"/>
  </g>
  <g id="pf__g-2">
    <line id="pf__line-6-k_0" x1="290.4" y1="140.4" x2="361.1" y2="69.6" stroke="#777" stroke-width="1" fill="none"/>
    <line id="pf__line-7-k_1" x1="431.8" y1="140.4" x2="502.5" y2="69.6" stroke="#777" stroke-width="1" fill="none"/>
  </g>
  <g id="pf__g-3">
    <path id="pf__path-1-k_0" d="M 361.1 69.6 L 360.5 69.1 L 359.9 68.5 L 359.4 68.0 L 358.8 67.5 L 358.2 66.9 L 357.7 66.4 L 357.1 65.9 L 356.5 65.3 L 355.9 64.8 L 355.3 64.3 L 354.7 63.8 L 354.1 63.3 L 353.5 62.8 L 352.9 62.3 L 352.3 61.8 L 351.6 61.3 L 351.0 60.9 L 350.4 60.4 L 349.8 59.9 L 349.1 59.5 L 348.5 59.0 L 347.9 58.5 L 347.2 58.1 L 346.6 57.6 L 345.9 57.2 L 345.3 56.8 L 344.6 56.3 L 343.9 55.9 L 343.3 55.5 L 342.6 55.1 L 341.9 54.7 L 341.3 54.3 L 340.6 53.9 L 339.9 53.5 L 339.2 53.1 L 338.5 52.7 L 337.8 52.3 L 337.1 52.0 L 336.5 51.6 L 335.8 51.3 L 335.1 50.9 L 334.3 50.6 L 333.6 50.2 L 332.9 49.9 L 332.2 49.5 L 331.5 49.2 L 330.8 48.9 L 330.1 48.6 L 329.3 48.3 L 328.6 48.0 L 327.9 47.7 L 327.2 47.4 L 326.4 47.1 L 325.7 46.8 L 325.0 46.5 L 324.2 46.3 L 323.5 46.0 L 322.7 45.7 L 322.0 45.5 L 321.3 45.2 L 320.5 45.0 L 319.8 44.8 L 319.0 44.5 L 318.3 44.3 L 317.5 44.1 L 316.7 43.9 L 316.0 43.7 L 315.2 43.5 L 314.5 43.3 L 313.7 43.1 L 312.9 42.9 L 312.2 42.8 L 311.4 42.6 L 310.6 42.4 L 309.9 42.3 L 309.1 42.1 L 308.3 42.0 L 307.5 41.8 L 306.8 41.7 L 306.0 41.6 L 305.2 41.5 L 304.4 41.4 L 303.7 41.2 L 302.9 41.1 L 302.1 41.0 L 301.3 41.0 L 300.5 40.9 L 299.8 40.8 L 299.0 40.7 L 298.2 40.7 L 297.4 40.6 L 296.6 40.6 L 295.9 40.5 L 295.1 40.5 L 294.3 40.4 L 293.5 40.4 L 292.7 40.4 L 291.9 40.4 L 291.1 40.4" stroke="black" stroke-width="2" fill="none"/>
    <path id="pf__path-2-k_0" d="M 431.8 40.4 L 431.0 40.4 L 430.2 40.4 L 429.4 40.4 L 428.6 40.4 L 427.9 40.4 L 427.1 40.5 L 426.3 40.5 L 425.5 40.6 L 424.7 40.6 L 423.9 40.7 L 423.1 40.7 L 422.4 40.8 L 421.6 40.9 L 420.8 41.0 L 420.0 41.0 L 419.2 41.1 L 418.5 41.2 L 417.7 41.4 L 416.9 41.5 L 416.1 41.6 L 415.4 41.7 L 414.6 41.8 L 413.8 42.0 L 413.0 42.1 L 412.3 42.3 L 411.5 42.4 L 410.7 42.6 L 410.0 42.8 L 409.2 42.9 L 408.4 43.1 L 407.7 43.3 L 406.9 43.5 L 406.1 43.7 L 405.4 43.9 L 404.6 44.1 L 403.9 44.3 L 403.1 44.5 L 402.4 44.8 L 401.6 45.0 L 400.9 45.2 L 400.1 45.5 L 399.4 45.7 L 398.6 46.0 L 397.9 46.3 L 397.2 46.5 L 396.4 46.8 L 395.7 47.1 L 395.0 47.4 L 394.2 47.7 L 393.5 48.0 L 392.8 48.3 L 392.1 48.6 L 391.3 48.9 L 390.6 49.2 L 389.9 49.5 L 389.2 49.9 L 388.5 50.2 L 387.8 50.6 L 387.1 50.9 L 386.4 51.3 L 385.7 51.6 L 385.0 52.0 L 384.3 52.3 L 383.6 52.7 L 382.9 53.1 L 382.2 53.5 L 381.6 53.9 L 380.9 54.3 L 380.2 54.7 L 379.5 55.1 L 378.9 55.5 L 378.2 55.9 L 377.5 56.3 L 376.9 56.8 L 376.2 57.2 L 375.6 57.6 L 374.9 58.1 L 374.3 58.5 L 373.6 59.0 L 373.0 59.5 L 372.4 59.9 L 371.7 60.4 L 371.1 60.9 L 370.5 61.3 L 369.9 61.8 L 369.3 62.3 L 368.6 62.8 L 368.0 63.3 L 367.4 63.8 L 366.8 64.3 L 366.2 64.8 L 365.6 65.3 L 365.1 65.9 L 364.5 66.4 L 363.9 66.9 L 363.3 67.5 L 362.8 68.0 L 362.2 68.5 L 361.6 69.1" stroke="black" stroke-width="2" fill="none"/>
    <path id="pf__path-3-k_0" d="M 290.4 140.4 L 291.5 141.5 L 292.6 142.5 L 293.8 143.6 L 294.9 144.7 L 296.1 145.7 L 297.3 146.7 L 298.5 147.7 L 299.8 148.7 L 301.0 149.6 L 302.3 150.5 L 303.6 151.5 L 304.9 152.4 L 306.2 153.2 L 307.5 154.1 L 308.8 154.9 L 310.2 155.7 L 311.5 156.5 L 312.9 157.3 L 314.3 158.0 L 315.7 158.7 L 317.1 159.4 L 318.5 160.1 L 319.9 160.8 L 321.4 161.4 L 322.8 162.0 L 324.3 162.6 L 325.7 163.2 L 327.2 163.7 L 328.7 164.3 L 330.2 164.8 L 331.7 165.2 L 333.2 165.7 L 334.7 166.1 L 336.2 166.5 L 337.7 166.9 L 339.3 167.2 L 340.8 167.6 L 342.3 167.9 L 343.9 168.2 L 345.4 168.4 L 347.0 168.6 L 348.5 168.9 L 350.1 169.0 L 351.7 169.2 L 353.2 169.3 L 354.8 169.4 L 356.4 169.5 L 357.9 169.6 L 359.5 169.6 L 361.1 169.6 L 362.6 169.6 L 364.2 169.6 L 365.8 169.5 L 367.3 169.4 L 368.9 169.3 L 370.5 169.2 L 372.0 169.0 L 373.6 168.9 L 375.2 168.6 L 376.7 168.4 L 378.3 168.2 L 379.8 167.9 L 381.3 167.6 L 382.9 167.2 L 384.4 166.9 L 385.9 166.5 L 387.5 166.1 L 389.0 165.7 L 390.5 165.2 L 392.0 164.8 L 393.5 164.3 L 394.9 163.7 L 396.4 163.2 L 397.9 162.6 L 399.3 162.0 L 400.8 161.4 L 402.2 160.8 L 403.6 160.1 L 405.1 159.4 L 406.5 158.7 L 407.9 158.0 L 409.2 157.3 L 410.6 156.5 L 412.0 155.7 L 413.3 154.9 L 414.6 154.1 L 416.0 153.2 L 417.3 152.4 L 418.6 151.5 L 419.8 150.5 L 421.1 149.6 L 422.4 148.7 L 423.6 147.7 L 424.8 146.7 L 426.0 145.7 L 427.2 144.7 L 428.4 143.6 L 429.5 142.5 L 430.7 141.5" stroke="black" stroke-width="2" fill="none"/>
    <path id="pf__path-4-k_1" d="M 502.5 69.6 L 501.9 69.1 L 501.4 68.5 L 500.8 68.0 L 500.2 67.5 L 499.7 66.9 L 499.1 66.4 L 498.5 65.9 L 497.9 65.3 L 497.3 64.8 L 496.7 64.3 L 496.1 63.8 L 495.5 63.3 L 494.9 62.8 L 494.3 62.3 L 493.7 61.8 L 493.1 61.3 L 492.4 60.9 L 491.8 60.4 L 491.2 59.9 L 490.6 59.5 L 489.9 59.0 L 489.3 58.5 L 488.6 58.1 L 488.0 57.6 L 487.3 57.2 L 486.7 56.8 L 486.0 56.3 L 485.4 55.9 L 484.7 55.5 L 484.0 55.1 L 483.4 54.7 L 482.7 54.3 L 482.0 53.9 L 481.3 53.5 L 480.6 53.1 L 480.0 52.7 L 479.3 52.3 L 478.6 52.0 L 477.9 51.6 L 477.2 51.3 L 476.5 50.9 L 475.8 50.6 L 475.1 50.2 L 474.4 49.9 L 473.6 49.5 L 472.9 49.2 L 472.2 48.9 L 471.5 48.6 L 470.8 48.3 L 470.0 48.0 L 469.3 47.7 L 468.6 47.4 L 467.9 47.1 L 467.1 46.8 L 466.4 46.5 L 465.7 46.3 L 464.9 46.0 L 464.2 45.7 L 463.4 45.5 L 462.7 45.2 L 461.9 45.0 L 461.2 44.8 L 460.4 44.5 L 459.7 44.3 L 458.9 44.1 L 458.2 43.9 L 457.4 43.7 L 456.6 43.5 L 455.9 43.3 L 455.1 43.1 L 454.4 42.9 L 453.6 42.8 L 452.8 42.6 L 452.1 42.4 L 451.3 42.3 L 450.5 42.1 L 449.7 42.0 L 449.0 41.8 L 448.2 41.7 L 447.4 41.6 L 446.6 41.5 L 445.9 41.4 L 445.1 41.2 L 444.3 41.1 L 443.5 41.0 L 442.8 41.0 L 442.0 40.9 L 441.2 40.8 L 440.4 40.7 L 439.6 40.7 L 438.8 40.6 L 438.1 40.6 L 437.3 40.5 L 436.5 40.5 L 435.7 40.4 L 434.9 40.4 L 434.1 40.4 L 433.3 40.4 L 432.6 40.4" stroke="black" stroke-width="2" fill="none"/>
    <path id="pf__path-5-k_1" d="M 573.2 40.4 L 572.4 40.4 L 571.6 40.4 L 570.8 40.4 L 570.1 40.4 L 569.3 40.4 L 568.5 40.5 L 567.7 40.5 L 566.9 40.6 L 566.1 40.6 L 565.4 40.7 L 564.6 40.7 L 563.8 40.8 L 563.0 40.9 L 562.2 41.0 L 561.4 41.0 L 560.7 41.1 L 559.9 41.2 L 559.1 41.4 L 558.3 41.5 L 557.6 41.6 L 556.8 41.7 L 556.0 41.8 L 555.2 42.0 L 554.5 42.1 L 553.7 42.3 L 552.9 42.4 L 552.2 42.6 L 551.4 42.8 L 550.6 42.9 L 549.9 43.1 L 549.1 43.3 L 548.3 43.5 L 547.6 43.7 L 546.8 43.9 L 546.1 44.1 L 545.3 44.3 L 544.5 44.5 L 543.8 44.8 L 543.0 45.0 L 542.3 45.2 L 541.6 45.5 L 540.8 45.7 L 540.1 46.0 L 539.3 46.3 L 538.6 46.5 L 537.9 46.8 L 537.1 47.1 L 536.4 47.4 L 535.7 47.7 L 534.9 48.0 L 534.2 48.3 L 533.5 48.6 L 532.8 48.9 L 532.0 49.2 L 531.3 49.5 L 530.6 49.9 L 529.9 50.2 L 529.2 50.6 L 528.5 50.9 L 527.8 51.3 L 527.1 51.6 L 526.4 52.0 L 525.7 52.3 L 525.0 52.7 L 524.3 53.1 L 523.7 53.5 L 523.0 53.9 L 522.3 54.3 L 521.6 54.7 L 520.9 55.1 L 520.3 55.5 L 519.6 55.9 L 519.0 56.3 L 518.3 56.8 L 517.6 57.2 L 517.0 57.6 L 516.3 58.1 L 515.7 58.5 L 515.1 59.0 L 514.4 59.5 L 513.8 59.9 L 513.2 60.4 L 512.5 60.9 L 511.9 61.3 L 511.3 61.8 L 510.7 62.3 L 510.1 62.8 L 509.5 63.3 L 508.9 63.8 L 508.3 64.3 L 507.7 64.8 L 507.1 65.3 L 506.5 65.9 L 505.9 66.4 L 505.3 66.9 L 504.7 67.5 L 504.2 68.0 L 503.6 68.5 L 503.0 69.1" stroke="black" stroke-width="2" fill="none"/>
    <path id="pf__path-6-k_1" d="M 431.8 140.4 L 432.9 141.5 L 434.0 142.5 L 435.2 143.6 L 436.4 144.7 L 437.5 145.7 L 438.7 146.7 L 440.0 147.7 L 441.2 148.7 L 442.4 149.6 L 443.7 150.5 L 445.0 151.5 L 446.3 152.4 L 447.6 153.2 L 448.9 154.1 L 450.2 154.9 L 451.6 155.7 L 452.9 156.5 L 454.3 157.3 L 455.7 158.0 L 457.1 158.7 L 458.5 159.4 L 459.9 160.1 L 461.3 160.8 L 462.8 161.4 L 464.2 162.0 L 465.7 162.6 L 467.1 163.2 L 468.6 163.7 L 470.1 164.3 L 471.6 164.8 L 473.1 165.2 L 474.6 165.7 L 476.1 166.1 L 477.6 166.5 L 479.1 166.9 L 480.7 167.2 L 482.2 167.6 L 483.7 167.9 L 485.3 168.2 L 486.8 168.4 L 488.4 168.6 L 490.0 168.9 L 491.5 169.0 L 493.1 169.2 L 494.6 169.3 L 496.2 169.4 L 497.8 169.5 L 499.3 169.6 L 500.9 169.6 L 502.5 169.6 L 504.1 169.6 L 505.6 169.6 L 507.2 169.5 L 508.8 169.4 L 510.3 169.3 L 511.9 169.2 L 513.5 169.0 L 515.0 168.9 L 516.6 168.6 L 518.1 168.4 L 519.7 168.2 L 521.2 167.9 L 522.8 167.6 L 524.3 167.2 L 525.8 166.9 L 527.4 166.5 L 528.9 166.1 L 530.4 165.7 L 531.9 165.2 L 533.4 164.8 L 534.9 164.3 L 536.4 163.7 L 537.8 163.2 L 539.3 162.6 L 540.8 162.0 L 542.2 161.4 L 543.6 160.8 L 545.1 160.1 L 546.5 159.4 L 547.9 158.7 L 549.3 158.0 L 550.7 157.3 L 552.0 156.5 L 553.4 155.7 L 554.7 154.9 L 556.1 154.1 L 557.4 153.2 L 558.7 152.4 L 560.0 151.5 L 561.3 150.5 L 562.5 149.6 L 563.8 148.7 L 565.0 147.7 L 566.2 146.7 L 567.4 145.7 L 568.6 144.7 L 569.8 143.6 L 570.9 142.5 L 572.1 141.5" stroke="black" stroke-width="2" fill="none"/>
  </g>
</svg>
