<svg xmlns="http://www.w3.org/2000/svg" id="pf__figure" width="610" height="210" viewBox="0 0 610 210">
  <defs>
    <clipPath id="pf__clipPath-0">
      <rect x="5.0" y="5.0" width="600.0" height="200.0"/>
    </clipPath>
    <clipPath id="pf__clipPath-1">
      <rect x="5.0" y="5.0" width="600.0" height="200.0"/>
    </clipPath>
  </defs>
  <g id="pf__g-0">
    <line id="pf__line-0-k_0" x1="205.0" y1="105.0" x2="5.0" y2="105.0" stroke="#777" stroke-width="1" fill="none"/>
    <line id="pf__line-1-k_1" x1="105.0" y1="5.0" x2="105.0" y2="205.0" stroke="#777" stroke-width="1" fill="none"/>
  </g>
  <path id="pf__path-0" d="M 205.0 105.0 L 204.8 98.7 L 204.2 92.5 L 203.2 86.3 L 201.9 80.1 L 200.1 74.1 L 198.0 68.2 L 195.5 62.4 L 192.6 56.8 L 189.4 51.4 L 185.9 46.2 L 182.1 41.3 L 177.9 36.5 L 173.5 32.1 L 168.7 27.9 L 163.8 24.1 L 158.6 20.6 L 153.2 17.4 L 147.6 14.5 L 141.8 12.0 L 135.9 9.9 L 129.9 8.1 L 123.7 6.8 L 117.5 5.8 L 111.3 5.2 L 105.0 5.0 L 98.7 5.2 L 92.5 5.8 L 86.3 6.8 L 80.1 8.1 L 74.1 9.9 L 68.2 12.0 L 62.4 14.5 L 56.8 17.4 L 51.4 20.6 L 46.2 24.1 L 41.3 27.9 L 36.5 32.1 L 32.1 36.5 L 27.9 41.3 L 24.1 46.2 L 20.6 51.4 L 17.4 56.8 L 14.5 62.4 L 12.0 68.2 L 9.9 74.1 L 8.1 80.1 L 6.8 86.3 L 5.8 92.5 L 5.2 98.7 L 5.0 105.0 L 5.2 111.3 L 5.8 117.5 L 6.8 123.7 L 8.1 129.9 L 9.9 135.9 L 12.0 141.8 L 14.5 147.6 L 17.4 153.2 L 20.6 158.6 L 24.1 163.8 L 27.9 168.7 L 32.1 173.5 L 36.5 177.9 L 41.3 182.1 L 46.2 185.9 L 51.4 189.4 L 56.8 192.6 L 62.4 195.5 L 68.2 198.0 L 74.1 200.1 L 80.1 201.9 L 86.3 203.2 L 92.5 204.2 L 98.7 204.8 L 105.0 205.0 L 111.3 204.8 L 117.5 204.2 L 123.7 203.2 L 129.9 201.9 L 135.9 200.1 L 141.8 198.0 L 147.6 195.5 L 153.2 192.6 L 158.6 189.4 L 163.8 185.9 L 168.7 182.1 L 173.5 177.9 L 177.9 173.5 L 182.1 168.7 L 185.9 163.8 L 189.4 158.6 L 192.6 153.2 L 195.5 147.6 L 198.0 141.8 L 200.1 135.9 L 201.9 129.9 L 203.2 123.7 L 204.2 117.5 L 204.8 111.3 Z" stroke="black" stroke-width="2" fill="none"/>
  <g id="pf__g-1">
    <line id="pf__line-2-k_0" x1="325.7" y1="140.4" x2="255.0" y2="69.6" stroke="#777" stroke-width="1" fill="none"/>
    <line id="pf__line-3-k_1" x1="467.1" y1="140.4" x2="396.4" y2="69.6" stroke="#777" stroke-width="1" fill="none"/>
    <line id="pf__line-4-k_2" x1="608.6" y1="140.4" x2="537.8" y2="69.6" stroke="#777" stroke-width="1" fill="none"/>
  </g>
  <g id="pf__g-2">
    <line id="pf__line-5-k_0" x1="325.7" y1="140.4" x2="396.4" y2="69.6" stroke="#777" stroke-width="1" fill="none"/>
    <line id="pf__line-6-k_1" x1="467.1" y1="140.4" x2="537.8" y2="69.6" stroke="#777" stroke-width="1" fill="none"/>
  </g>
  <g id="pf__g-3">
    <path id="pf__path-1-k_0" d="M 396.4 69.6 L 395.3 68.5 L 394.2 67.5 L 393.0 66.4 L 391.8 65.3 L 390.7 64.3 L 389.5 63.3 L 388.2 62.3 L 387.0 61.3 L 385.8 60.4 L 384.5 59.5 L 383.2 58.5 L 381.9 57.6 L 380.6 56.8 L 379.3 55.9 L 378.0 55.1 L 376.6 54.3 L 375.3 53.5 L 373.9 52.7 L 372.5 52.0 L 371.1 51.3 L 369.7 50.6 L 368.3 49.9 L 366.9 49.2 L 365.4 48.6 L 364.0 48.0 L 362.5 47.4 L 361.1 46.8 L 359.6 46.3 L 358.1 45.7 L 356.6 45.2 L 355.1 44.8 L 353.6 44.3 L 352.1 43.9 L 350.6 43.5 L 349.1 43.1 L 347.5 42.8 L 346.0 42.4 L 344.4 42.1 L 342.9 41.8 L 341.4 41.6 L 339.8 41.4 L 338.2 41.1 L 336.7 41.0 L 335.1 40.8 L 333.6 40.7 L 332.0 40.6 L 330.4 40.5 L 328.9 40.4 L 327.3 40.4 L 325.7 40.4 L 324.1 40.4 L 322.6 40.4 L 321.0 40.5 L 319.4 40.6 L 317.9 40.7 L 316.3 40.8 L 314.7 41.0 L 313.2 41.1 L 311.6 41.4 L 310.1 41.6 L 308.5 41.8 L 307.0 42.1 L 305.4 42.4 L 303.9 42.8 L 302.4 43.1 L 300.8 43.5 L 299.3 43.9 L 297.8 44.3 L 296.3 44.8 L 294.8 45.2 L 293.3 45.7 L 291.8 46.3 L 290.4 46.8 L 288.9 47.4 L 287.4 48.0 L 286.0 48.6 L 284.6 49.2 L 283.1 49.9 L 281.7 50.6 L 280.3 51.3 L 278.9 52.0 L 277.5 52.7 L 276.2 53.5 L 274.8 54.3 L 273.5 55.1 L 272.1 55.9 L 270.8 56.8 L 269.5 57.6 L 268.2 58.5 L 266.9 59.5 L 265.7 60.4 L 264.4 61.3 L 263.2 62.3 L 262.0 63.3 L 260.8 64.3 L 259.6 65.3 L 258.4 66.4 L 257.3 67.5 L 256.1 68.5" stroke="black" stroke-width="2" fill="none"/>
    <path id="pf__path-2-k_0" d="M 325.7 140.4 L 326.8 141.5 L 328.0 142.5 L 329.1 143.6 L 330.3 144.7 L 331.5 145.7 L 332.7 146.7 L 333.9 147.7 L 335.1 148.7 L 336.4 149.6 L 337.6 150.5 L 338.9 151.5 L 340.2 152.4 L 341.5 153.2 L 342.8 154.1 L 344.2 154.9 L 345.5 155.7 L 346.9 156.5 L 348.2 157.3 L 349.6 158.0 L 351.0 158.7 L 352.4 159.4 L 353.8 160.1 L 355.3 160.8 L 356.7 161.4 L 358.2 162.0 L 359.6 162.6 L 361.1 163.2 L 362.5 163.7 L 364.0 164.3 L 365.5 164.8 L 367.0 165.2 L 368.5 165.7 L 370.0 166.1 L 371.6 166.5 L 373.1 166.9 L 374.6 167.2 L 376.1 167.6 L 377.7 167.9 L 379.2 168.2 L 380.8 168.4 L 382.3 168.6 L 383.9 168.9 L 385.4 169.0 L 387.0 169.2 L 388.6 169.3 L 390.1 169.4 L 391.7 169.5 L 393.3 169.6 L 394.9 169.6 L 396.4 169.6 L 398.0 169.6 L 399.6 169.6 L 401.1 169.5 L 402.7 169.4 L 404.3 169.3 L 405.8 169.2 L 407.4 169.0 L 409.0 168.9 L 410.5 168.6 L 412.1 168.4 L 413.6 168.2 L 415.2 167.9 L 416.7 167.6 L 418.2 167.2 L 419.8 166.9 L 421.3 166.5 L 422.8 166.1 L 424.3 165.7 L 425.8 165.2 L 427.3 164.8 L 428.8 164.3 L 430.3 163.7 L 431.8 163.2 L 433.2 162.6 L 434.7 162.0 L 436.1 161.4 L 437.6 160.8 L 439.0 160.1 L 440.4 159.4 L 441.8 158.7 L 443.2 158.0 L 444.6 157.3 L 446.0 156.5 L 447.3 155.7 L 448.7 154.9 L 450.0 154.1 L 451.3 153.2 L 452.6 152.4 L 453.9 151.5 L 455.2 150.5 L 456.5 149.6 L 457.7 148.7 L 458.9 147.7 L 460.2 146.7 L 461.4 145.7 L 462.6 144.7 L 463.7 143.6 L 464.9 142.5 L 466.0 141.5" stroke="black" stroke-width="2" fill="none"/>
    <path id="pf__path-3-k_1" d="M 537.8 69.6 L 536.7 68.5 L 535.6 67.5 L 534.4 66.4 L 533.3 65.3 L 532.1 64.3 L 530.9 63.3 L 529.7 62.3 L 528.4 61.3 L 527.2 60.4 L 525.9 59.5 L 524.6 58.5 L 523.3 57.6 L 522.0 56.8 L 520.7 55.9 L 519.4 55.1 L 518.0 54.3 L 516.7 53.5 L 515.3 52.7 L 513.9 52.0 L 512.5 51.3 L 511.1 50.6 L 509.7 49.9 L 508.3 49.2 L 506.8 48.6 L 505.4 48.0 L 503.9 47.4 L 502.5 46.8 L 501.0 46.3 L 499.5 45.7 L 498.0 45.2 L 496.5 44.8 L 495.0 44.3 L 493.5 43.9 L 492.0 43.5 L 490.5 43.1 L 488.9 42.8 L 487.4 42.4 L 485.9 42.1 L 484.3 41.8 L 482.8 41.6 L 481.2 41.4 L 479.7 41.1 L 478.1 41.0 L 476.5 40.8 L 475.0 40.7 L 473.4 40.6 L 471.8 40.5 L 470.3 40.4 L 468.7 40.4 L 467.1 40.4 L 465.6 40.4 L 464.0 40.4 L 462.4 40.5 L 460.9 40.6 L 459.3 40.7 L 457.7 40.8 L 456.2 41.0 L 454.6 41.1 L 453.0 41.4 L 451.5 41.6 L 449.9 41.8 L 448.4 42.1 L 446.9 42.4 L 445.3 42.8 L 443.8 43.1 L 442.3 43.5 L 440.7 43.9 L 439.2 44.3 L 437.7 44.8 L 436.2 45.2 L 434.7 45.7 L 433.3 46.3 L 431.8 46.8 L 430.3 47.4 L 428.9 48.0 L 427.4 48.6 L 426.0 49.2 L 424.6 49.9 L 423.1 50.6 L 421.7 51.3 L 420.3 52.0 L 419.0 52.7 L 417.6 53.5 L 416.2 54.3 L 414.9 55.1 L 413.5 55.9 L 412.2 56.8 L 410.9 57.6 L 409.6 58.5 L 408.4 59.5 L 407.1 60.4 L 405.8 61.3 L 404.6 62.3 L 403.4 63.3 L 402.2 64.3 L 401.0 65.3 L 399.8 66.4 L 398.7 67.5 L 397.5 68.5" stroke="black" stroke-width="2" fill="none"/>
    <path id="pf__path-4-k_1" d="M 467.1 140.4 L 468.3 141.5 L 469.4 142.5 L 470.5 143.6 L 471.7 144.7 L 472.9 145.7 L 474.1 146.7 L 475.3 147.7 L 476.6 148.7 L 477.8 149.6 L 479.1 150.5 L 480.3 151.5 L 481.6 152.4 L 482.9 153.2 L 484.3 154.1 L 485.6 154.9 L 486.9 155.7 L 488.3 156.5 L 489.7 157.3 L 491.0 158.0 L 492.4 158.7 L 493.8 159.4 L 495.3 160.1 L 496.7 160.8 L 498.1 161.4 L 499.6 162.0 L 501.0 162.6 L 502.5 163.2 L 504.0 163.7 L 505.5 164.3 L 506.9 164.8 L 508.4 165.2 L 509.9 165.7 L 511.5 166.1 L 513.0 166.5 L 514.5 166.9 L 516.0 167.2 L 517.6 167.6 L 519.1 167.9 L 520.6 168.2 L 522.2 168.4 L 523.8 168.6 L 525.3 168.9 L 526.9 169.0 L 528.4 169.2 L 530.0 169.3 L 531.6 169.4 L 533.1 169.5 L 534.7 169.6 L 536.3 169.6 L 537.8 169.6 L 539.4 169.6 L 541.0 169.6 L 542.6 169.5 L 544.1 169.4 L 545.7 169.3 L 547.3 169.2 L 548.8 169.0 L 550.4 168.9 L 551.9 168.6 L 553.5 168.4 L 555.0 168.2 L 556.6 167.9 L 558.1 167.6 L 559.7 167.2 L 561.2 166.9 L 562.7 166.5 L 564.2 166.1 L 565.7 165.7 L 567.2 165.2 L 568.7 164.8 L 570.2 164.3 L 571.7 163.7 L 573.2 163.2 L 574.7 162.6 L 576.1 162.0 L 577.6 161.4 L 579.0 160.8 L 580.4 160.1 L 581.8 159.4 L 583.2 158.7 L 584.6 158.0 L 586.0 157.3 L 587.4 156.5 L 588.7 155.7 L 590.1 154.9 L 591.4 154.1 L 592.7 153.2 L 594.1 152.4 L 595.3 151.5 L 596.6 150.5 L 597.9 149.6 L 599.1 148.7 L 600.4 147.7 L 601.6 146.7 L 602.8 145.7 L 604.0 144.7 L 605.1 143.6 L 606.3 142.5 L 607.4 141.5" stroke="black" stroke-width="2" fill="none"/>
  </g>
</svg>
