<svg xmlns="http://www.w3.org/2000/svg" id="pf__figure" width="610" height="210" viewBox="0 0 610 210">
  <defs>
    <clipPath id="pf__clipPath-0">
      <rect x="5.0" y="5.0" width="600.0" height="200.0"/>
    </clipPath>
    <clipPath id="pf__clipPath-1">
      <rect x="5.0" y="5.0" width="600.0" height="200.0"/>
    </clipPath>
  </defs>
  <line id="pf__line-0" x1="278.7" y1="151.2" x2="278.7" y2="51.2" stroke="#777" stroke-width="1" fill="none"/>
  <line id="pf__line-1" x1="584.9" y1="151.2" x2="584.9" y2="51.2" stroke="#777" stroke-width="1" fill="none"/>
  <g id="pf__g-0">
    <line id="pf__line-2-k_0" x1="205.0" y1="105.0" x2="5.0" y2="105.0" stroke="#777" stroke-width="1" fill="none"/>
    <line id="pf__line-3-k_1" x1="175.7" y1="34.3" x2="34.3" y2="175.7" stroke="#777" stroke-width="1" fill="none"/>
    <line id="pf__line-4-k_2" x1="105.0" y1="5.0" x2="105.0" y2="205.0" stroke="#777" stroke-width="1" fill="none"/>
    <line id="pf__line-5-k_3" x1="34.3" y1="34.3" x2="175.7" y2="175.7" stroke="#777" stroke-width="1" fill="none"/>
  </g>
  <path id="pf__path-0" d="M 205.0 105.0 L 204.8 98.7 L 204.2 92.5 L 203.2 86.3 L 201.9 80.1 L 200.1 74.1 L 198.0 68.2 L 195.5 62.4 L 192.6 56.8 L 189.4 51.4 L 185.9 46.2 L 182.1 41.3 L 177.9 36.5 L 173.5 32.1 L 168.7 27.9 L 163.8 24.1 L 158.6 20.6 L 153.2 17.4 L 147.6 14.5 L 141.8 12.0 L 135.9 9.9 L 129.9 8.1 L 123.7 6.8 L 117.5 5.8 L 111.3 5.2 L 105.0 5.0 L 98.7 5.2 L 92.5 5.8 L 86.3 6.8 L 80.1 8.1 L 74.1 9.9 L 68.2 12.0 L 62.4 14.5 L 56.8 17.4 L 51.4 20.6 L 46.2 24.1 L 41.3 27.9 L 36.5 32.1 L 32.1 36.5 L 27.9 41.3 L 24.1 46.2 L 20.6 51.4 L 17.4 56.8 L 14.5 62.4 L 12.0 68.2 L 9.9 74.1 L 8.1 80.1 L 6.8 86.3 L 5.8 92.5 L 5.2 98.7 L 5.0 105.0 L 5.2 111.3 L 5.8 117.5 L 6.8 123.7 L 8.1 129.9 L 9.9 135.9 L 12.0 141.8 L 14.5 147.6 L 17.4 153.2 L 20.6 158.6 L 24.1 163.8 L 27.9 168.7 L 32.1 173.5 L 36.5 177.9 L 41.3 182.1 L 46.2 185.9 L 51.4 189.4 L 56.8 192.6 L 62.4 195.5 L 68.2 198.0 L 74.1 200.1 L 80.1 201.9 L 86.3 203.2 L 92.5 204.2 L 98.7 204.8 L 105.0 205.0 L 111.3 204.8 L 117.5 204.2 L 123.7 203.2 L 129.9 201.9 L 135.9 200.1 L 141.8 198.0 L 147.6 195.5 L 153.2 192.6 L 158.6 189.4 L 163.8 185.9 L 168.7 182.1 L 173.5 177.9 L 177.9 173.5 L 182.1 168.7 L 185.9 163.8 L 189.4 158.6 L 192.6 153.2 L 195.5 147.6 L 198.0 141.8 L 200.1 135.9 L 201.9 129.9 L 203.2 123.7 L 204.2 117.5 L 204.8 111.3 Z" stroke="black" stroke-width="2" fill="none"/>
  <g id="pf__g-1">
    <line id="pf__line-6-k_1" x1="355.2" y1="151.2" x2="317.0" y2="58.8" stroke="#777" stroke-width="1" fill="none"/>
    <line id="pf__line-7-k_2" x1="431.8" y1="151.2" x2="393.5" y2="58.8" stroke="#777" stroke-width="1" fill="none"/>
    <line id="pf__line-8-k_3" x1="508.3" y1="151.2" x2="470.0" y2="58.8" stroke="#777" stroke-width="1" fill="none"/>
    <line id="pf__line-9-k_4" x1="584.9" y1="151.2" x2="546.6" y2="58.8" stroke="#777" stroke-width="1" fill="none"/>
  </g>
  <g id="pf__g-2">
    <line id="pf__line-10-k_0" x1="278.7" y1="151.2" x2="317.0" y2="58.8" stroke="#777" stroke-width="1" fill="none"/>
    <line id="pf__line-11-k_1" x1="355.2" y1="151.2" x2="393.5" y2="58.8" stroke="#777" stroke-width="1" fill="none"/>
    <line id="pf__line-12-k_2" x1="431.8" y1="151.2" x2="470.0" y2="58.8" stroke="#777" stroke-width="1" fill="none"/>
    <line id="pf__line-13-k_3" x1="508.3" y1="151.2" x2="546.6" y2="58.8" stroke="#777" stroke-width="1" fill="none"/>
  </g>
  <g id="pf__g-3">
    <path id="pf__path-1-k_0" d="M 317.0 58.8 L 316.6 58.7 L 316.2 58.5 L 315.9 58.4 L 315.5 58.2 L 315.2 58.1 L 314.8 57.9 L 314.4 57.8 L 314.1 57.6 L 313.7 57.5 L 313.3 57.4 L 312.9 57.2 L 312.6 57.1 L 312.2 57.0 L 311.8 56.8 L 311.5 56.7 L 311.1 56.6 L 310.7 56.5 L 310.4 56.3 L 310.0 56.2 L 309.6 56.1 L 309.2 56.0 L 308.9 55.8 L 308.5 55.7 L 308.1 55.6 L 307.7 55.5 L 307.4 55.4 L 307.0 55.3 L 306.6 55.2 L 306.2 55.1 L 305.8 54.9 L 305.5 54.8 L 305.1 54.7 L 304.7 54.6 L 304.3 54.5 L 304.0 54.4 L 303.6 54.3 L 303.2 54.2 L 302.8 54.1 L 302.4 54.0 L 302.0 54.0 L 301.7 53.9 L 301.3 53.8 L 300.9 53.7 L 300.5 53.6 L 300.1 53.5 L 299.8 53.4 L 299.4 53.4 L 299.0 53.3 L 298.6 53.2 L 298.2 53.1 L 297.8 53.0 L 297.4 53.0 L 297.1 52.9 L 296.7 52.8 L 296.3 52.8 L 295.9 52.7 L 295.5 52.6 L 295.1 52.6 L 294.7 52.5 L 294.3 52.4 L 294.0 52.4 L 293.6 52.3 L 293.2 52.2 L 292.8 52.2 L 292.4 52.1 L 292.0 52.1 L 291.6 52.0 L 291.2 52.0 L 290.8 51.9 L 290.5 51.9 L 290.1 51.8 L 289.7 51.8 L 289.3 51.8 L 288.9 51.7 L 288.5 51.7 L 288.1 51.6 L 287.7 51.6 L 287.3 51.6 L 286.9 51.5 L 286.5 51.5 L 286.2 51.5 L 285.8 51.4 L 285.4 51.4 L 285.0 51.4 L 284.6 51.4 L 284.2 51.3 L 283.8 51.3 L 283.4 51.3 L 283.0 51.3 L 282.6 51.3 L 282.2 51.3 L 281.8 51.2 L 281.5 51.2 L 281.1 51.2 L 280.7 51.2 L 280.3 51.2 L 279.9 51.2 L 279.5 51.2 L 279.1 51.2" stroke="black" stroke-width="2" fill="none"/>
    <path id="pf__path-2-k_0" d="M 355.2 51.2 L 354.8 51.2 L 354.5 51.2 L 354.1 51.2 L 353.7 51.2 L 353.3 51.2 L 352.9 51.2 L 352.5 51.2 L 352.1 51.2 L 351.7 51.3 L 351.3 51.3 L 350.9 51.3 L 350.5 51.3 L 350.1 51.3 L 349.7 51.3 L 349.4 51.4 L 349.0 51.4 L 348.6 51.4 L 348.2 51.4 L 347.8 51.5 L 347.4 51.5 L 347.0 51.5 L 346.6 51.6 L 346.2 51.6 L 345.8 51.6 L 345.4 51.7 L 345.0 51.7 L 344.7 51.8 L 344.3 51.8 L 343.9 51.8 L 343.5 51.9 L 343.1 51.9 L 342.7 52.0 L 342.3 52.0 L 341.9 52.1 L 341.5 52.1 L 341.1 52.2 L 340.8 52.2 L 340.4 52.3 L 340.0 52.4 L 339.6 52.4 L 339.2 52.5 L 338.8 52.6 L 338.4 52.6 L 338.0 52.7 L 337.7 52.8 L 337.3 52.8 L 336.9 52.9 L 336.5 53.0 L 336.1 53.0 L 335.7 53.1 L 335.3 53.2 L 335.0 53.3 L 334.6 53.4 L 334.2 53.4 L 333.8 53.5 L 333.4 53.6 L 333.0 53.7 L 332.7 53.8 L 332.3 53.9 L 331.9 54.0 L 331.5 54.0 L 331.1 54.1 L 330.8 54.2 L 330.4 54.3 L 330.0 54.4 L 329.6 54.5 L 329.2 54.6 L 328.9 54.7 L 328.5 54.8 L 328.1 54.9 L 327.7 55.1 L 327.3 55.2 L 327.0 55.3 L 326.6 55.4 L 326.2 55.5 L 325.8 55.6 L 325.5 55.7 L 325.1 55.8 L 324.7 56.0 L 324.3 56.1 L 324.0 56.2 L 323.6 56.3 L 323.2 56.5 L 322.8 56.6 L 322.5 56.7 L 322.1 56.8 L 321.7 57.0 L 321.4 57.1 L 321.0 57.2 L 320.6 57.4 L 320.3 57.5 L 319.9 57.6 L 319.5 57.8 L 319.2 57.9 L 318.8 58.1 L 318.4 58.2 L 318.1 58.4 L 317.7 58.5 L 317.3 58.7" stroke="black" stroke-width="2" fill="none"/>
    <path id="pf__path-3-k_0" d="M 278.7 151.2 L 279.4 151.5 L 280.2 151.8 L 280.9 152.1 L 281.6 152.4 L 282.4 152.6 L 283.1 152.9 L 283.8 153.2 L 284.6 153.4 L 285.3 153.7 L 286.1 153.9 L 286.8 154.2 L 287.6 154.4 L 288.3 154.6 L 289.1 154.8 L 289.8 155.1 L 290.6 155.3 L 291.3 155.5 L 292.1 155.7 L 292.9 155.9 L 293.6 156.0 L 294.4 156.2 L 295.2 156.4 L 295.9 156.6 L 296.7 156.7 L 297.5 156.9 L 298.2 157.0 L 299.0 157.2 L 299.8 157.3 L 300.6 157.4 L 301.3 157.6 L 302.1 157.7 L 302.9 157.8 L 303.7 157.9 L 304.4 158.0 L 305.2 158.1 L 306.0 158.2 L 306.8 158.3 L 307.6 158.4 L 308.3 158.4 L 309.1 158.5 L 309.9 158.6 L 310.7 158.6 L 311.5 158.7 L 312.3 158.7 L 313.0 158.7 L 313.8 158.8 L 314.6 158.8 L 315.4 158.8 L 316.2 158.8 L 317.0 158.8 L 317.8 158.8 L 318.5 158.8 L 319.3 158.8 L 320.1 158.8 L 320.9 158.7 L 321.7 158.7 L 322.5 158.7 L 323.3 158.6 L 324.0 158.6 L 324.8 158.5 L 325.6 158.4 L 326.4 158.4 L 327.2 158.3 L 327.9 158.2 L 328.7 158.1 L 329.5 158.0 L 330.3 157.9 L 331.1 157.8 L 331.8 157.7 L 332.6 157.6 L 333.4 157.4 L 334.2 157.3 L 334.9 157.2 L 335.7 157.0 L 336.5 156.9 L 337.3 156.7 L 338.0 156.6 L 338.8 156.4 L 339.6 156.2 L 340.3 156.0 L 341.1 155.9 L 341.8 155.7 L 342.6 155.5 L 343.4 155.3 L 344.1 155.1 L 344.9 154.8 L 345.6 154.6 L 346.4 154.4 L 347.1 154.2 L 347.9 153.9 L 348.6 153.7 L 349.4 153.4 L 350.1 153.2 L 350.8 152.9 L 351.6 152.6 L 352.3 152.4 L 353.1 152.1 L 353.8 151.8 L 354.5 151.5" stroke="black" stroke-width="2" fill="none"/>
    <path id="pf__path-4-k_1" d="M 393.5 58.8 L 393.1 58.7 L 392.8 58.5 L 392.4 58.4 L 392.1 58.2 L 391.7 58.1 L 391.3 57.9 L 391.0 57.8 L 390.6 57.6 L 390.2 57.5 L 389.9 57.4 L 389.5 57.2 L 389.1 57.1 L 388.7 57.0 L 388.4 56.8 L 388.0 56.7 L 387.6 56.6 L 387.3 56.5 L 386.9 56.3 L 386.5 56.2 L 386.1 56.1 L 385.8 56.0 L 385.4 55.8 L 385.0 55.7 L 384.6 55.6 L 384.3 55.5 L 383.9 55.4 L 383.5 55.3 L 383.1 55.2 L 382.8 55.1 L 382.4 54.9 L 382.0 54.8 L 381.6 54.7 L 381.2 54.6 L 380.9 54.5 L 380.5 54.4 L 380.1 54.3 L 379.7 54.2 L 379.3 54.1 L 379.0 54.0 L 378.6 54.0 L 378.2 53.9 L 377.8 53.8 L 377.4 53.7 L 377.1 53.6 L 376.7 53.5 L 376.3 53.4 L 375.9 53.4 L 375.5 53.3 L 375.1 53.2 L 374.7 53.1 L 374.4 53.0 L 374.0 53.0 L 373.6 52.9 L 373.2 52.8 L 372.8 52.8 L 372.4 52.7 L 372.0 52.6 L 371.7 52.6 L 371.3 52.5 L 370.9 52.4 L 370.5 52.4 L 370.1 52.3 L 369.7 52.2 L 369.3 52.2 L 368.9 52.1 L 368.6 52.1 L 368.2 52.0 L 367.8 52.0 L 367.4 51.9 L 367.0 51.9 L 366.6 51.8 L 366.2 51.8 L 365.8 51.8 L 365.4 51.7 L 365.0 51.7 L 364.7 51.6 L 364.3 51.6 L 363.9 51.6 L 363.5 51.5 L 363.1 51.5 L 362.7 51.5 L 362.3 51.4 L 361.9 51.4 L 361.5 51.4 L 361.1 51.4 L 360.7 51.3 L 360.3 51.3 L 360.0 51.3 L 359.6 51.3 L 359.2 51.3 L 358.8 51.3 L 358.4 51.2 L 358.0 51.2 L 357.6 51.2 L 357.2 51.2 L 356.8 51.2 L 356.4 51.2 L 356.0 51.2 L 355.6 51.2" stroke="black" stroke-width="2" fill="none"/>
    <path id="pf__path-5-k_1" d="M 431.8 51.2 L 431.4 51.2 L 431.0 51.2 L 430.6 51.2 L 430.2 51.2 L 429.8 51.2 L 429.4 51.2 L 429.0 51.2 L 428.6 51.2 L 428.2 51.3 L 427.9 51.3 L 427.5 51.3 L 427.1 51.3 L 426.7 51.3 L 426.3 51.3 L 425.9 51.4 L 425.5 51.4 L 425.1 51.4 L 424.7 51.4 L 424.3 51.5 L 423.9 51.5 L 423.5 51.5 L 423.1 51.6 L 422.8 51.6 L 422.4 51.6 L 422.0 51.7 L 421.6 51.7 L 421.2 51.8 L 420.8 51.8 L 420.4 51.8 L 420.0 51.9 L 419.6 51.9 L 419.2 52.0 L 418.9 52.0 L 418.5 52.1 L 418.1 52.1 L 417.7 52.2 L 417.3 52.2 L 416.9 52.3 L 416.5 52.4 L 416.1 52.4 L 415.7 52.5 L 415.4 52.6 L 415.0 52.6 L 414.6 52.7 L 414.2 52.8 L 413.8 52.8 L 413.4 52.9 L 413.0 53.0 L 412.7 53.0 L 412.3 53.1 L 411.9 53.2 L 411.5 53.3 L 411.1 53.4 L 410.7 53.4 L 410.3 53.5 L 410.0 53.6 L 409.6 53.7 L 409.2 53.8 L 408.8 53.9 L 408.4 54.0 L 408.1 54.0 L 407.7 54.1 L 407.3 54.2 L 406.9 54.3 L 406.5 54.4 L 406.1 54.5 L 405.8 54.6 L 405.4 54.7 L 405.0 54.8 L 404.6 54.9 L 404.3 55.1 L 403.9 55.2 L 403.5 55.3 L 403.1 55.4 L 402.7 55.5 L 402.4 55.6 L 402.0 55.7 L 401.6 55.8 L 401.2 56.0 L 400.9 56.1 L 400.5 56.2 L 400.1 56.3 L 399.8 56.5 L 399.4 56.6 L 399.0 56.7 L 398.6 56.8 L 398.3 57.0 L 397.9 57.1 L 397.5 57.2 L 397.2 57.4 L 396.8 57.5 L 396.4 57.6 L 396.1 57.8 L 395.7 57.9 L 395.3 58.1 L 395.0 58.2 L 394.6 58.4 L 394.2 58.5 L 393.9 58.7" stroke="black" stroke-width="2" fill="none"/>
    <path id="pf__path-6-k_1" d="M 355.2 151.2 L 356.0 151.5 L 356.7 151.8 L 357.4 152.1 L 358.2 152.4 L 358.9 152.6 L 359.6 152.9 L 360.4 153.2 L 361.1 153.4 L 361.9 153.7 L 362.6 153.9 L 363.4 154.2 L 364.1 154.4 L 364.9 154.6 L 365.6 154.8 L 366.4 155.1 L 367.1 155.3 L 367.9 155.5 L 368.6 155.7 L 369.4 155.9 L 370.2 156.0 L 370.9 156.2 L 371.7 156.4 L 372.5 156.6 L 373.2 156.7 L 374.0 156.9 L 374.8 157.0 L 375.5 157.2 L 376.3 157.3 L 377.1 157.4 L 377.9 157.6 L 378.6 157.7 L 379.4 157.8 L 380.2 157.9 L 381.0 158.0 L 381.8 158.1 L 382.5 158.2 L 383.3 158.3 L 384.1 158.4 L 384.9 158.4 L 385.7 158.5 L 386.4 158.6 L 387.2 158.6 L 388.0 158.7 L 388.8 158.7 L 389.6 158.7 L 390.4 158.8 L 391.2 158.8 L 391.9 158.8 L 392.7 158.8 L 393.5 158.8 L 394.3 158.8 L 395.1 158.8 L 395.9 158.8 L 396.6 158.8 L 397.4 158.7 L 398.2 158.7 L 399.0 158.7 L 399.8 158.6 L 400.6 158.6 L 401.4 158.5 L 402.1 158.4 L 402.9 158.4 L 403.7 158.3 L 404.5 158.2 L 405.3 158.1 L 406.0 158.0 L 406.8 157.9 L 407.6 157.8 L 408.4 157.7 L 409.2 157.6 L 409.9 157.4 L 410.7 157.3 L 411.5 157.2 L 412.2 157.0 L 413.0 156.9 L 413.8 156.7 L 414.6 156.6 L 415.3 156.4 L 416.1 156.2 L 416.9 156.0 L 417.6 155.9 L 418.4 155.7 L 419.1 155.5 L 419.9 155.3 L 420.7 155.1 L 421.4 154.8 L 422.2 154.6 L 422.9 154.4 L 423.7 154.2 L 424.4 153.9 L 425.2 153.7 L 425.9 153.4 L 426.6 153.2 L 427.4 152.9 L 428.1 152.6 L 428.9 152.4 L 429.6 152.1 L 430.3 151.8 L 431.0 151.5" stroke="black" stroke-width="2" fill="none"/>
    <path id="pf__path-7-k_2" d="M 470.0 58.8 L 469.7 58.7 L 469.3 58.5 L 469.0 58.4 L 468.6 58.2 L 468.2 58.1 L 467.9 57.9 L 467.5 57.8 L 467.1 57.6 L 466.8 57.5 L 466.4 57.4 L 466.0 57.2 L 465.7 57.1 L 465.3 57.0 L 464.9 56.8 L 464.5 56.7 L 464.2 56.6 L 463.8 56.5 L 463.4 56.3 L 463.1 56.2 L 462.7 56.1 L 462.3 56.0 L 461.9 55.8 L 461.6 55.7 L 461.2 55.6 L 460.8 55.5 L 460.4 55.4 L 460.1 55.3 L 459.7 55.2 L 459.3 55.1 L 458.9 54.9 L 458.5 54.8 L 458.2 54.7 L 457.8 54.6 L 457.4 54.5 L 457.0 54.4 L 456.6 54.3 L 456.3 54.2 L 455.9 54.1 L 455.5 54.0 L 455.1 54.0 L 454.7 53.9 L 454.4 53.8 L 454.0 53.7 L 453.6 53.6 L 453.2 53.5 L 452.8 53.4 L 452.4 53.4 L 452.1 53.3 L 451.7 53.2 L 451.3 53.1 L 450.9 53.0 L 450.5 53.0 L 450.1 52.9 L 449.7 52.8 L 449.4 52.8 L 449.0 52.7 L 448.6 52.6 L 448.2 52.6 L 447.8 52.5 L 447.4 52.4 L 447.0 52.4 L 446.6 52.3 L 446.3 52.2 L 445.9 52.2 L 445.5 52.1 L 445.1 52.1 L 444.7 52.0 L 444.3 52.0 L 443.9 51.9 L 443.5 51.9 L 443.1 51.8 L 442.8 51.8 L 442.4 51.8 L 442.0 51.7 L 441.6 51.7 L 441.2 51.6 L 440.8 51.6 L 440.4 51.6 L 440.0 51.5 L 439.6 51.5 L 439.2 51.5 L 438.8 51.4 L 438.4 51.4 L 438.1 51.4 L 437.7 51.4 L 437.3 51.3 L 436.9 51.3 L 436.5 51.3 L 436.1 51.3 L 435.7 51.3 L 435.3 51.3 L 434.9 51.2 L 434.5 51.2 L 434.1 51.2 L 433.7 51.2 L 433.3 51.2 L 433.0 51.2 L 432.6 51.2 L 432.2 51.2" stroke="black" stroke-width="2" fill="none"/>
    <path id="pf__path-8-k_2" d="M 508.3 51.2 L 507.9 51.2 L 507.5 51.2 L 507.1 51.2 L 506.7 51.2 L 506.4 51.2 L 506.0 51.2 L 505.6 51.2 L 505.2 51.2 L 504.8 51.3 L 504.4 51.3 L 504.0 51.3 L 503.6 51.3 L 503.2 51.3 L 502.8 51.3 L 502.4 51.4 L 502.0 51.4 L 501.6 51.4 L 501.3 51.4 L 500.9 51.5 L 500.5 51.5 L 500.1 51.5 L 499.7 51.6 L 499.3 51.6 L 498.9 51.6 L 498.5 51.7 L 498.1 51.7 L 497.7 51.8 L 497.3 51.8 L 496.9 51.8 L 496.6 51.9 L 496.2 51.9 L 495.8 52.0 L 495.4 52.0 L 495.0 52.1 L 494.6 52.1 L 494.2 52.2 L 493.8 52.2 L 493.4 52.3 L 493.1 52.4 L 492.7 52.4 L 492.3 52.5 L 491.9 52.6 L 491.5 52.6 L 491.1 52.7 L 490.7 52.8 L 490.3 52.8 L 490.0 52.9 L 489.6 53.0 L 489.2 53.0 L 488.8 53.1 L 488.4 53.2 L 488.0 53.3 L 487.7 53.4 L 487.3 53.4 L 486.9 53.5 L 486.5 53.6 L 486.1 53.7 L 485.7 53.8 L 485.4 53.9 L 485.0 54.0 L 484.6 54.0 L 484.2 54.1 L 483.8 54.2 L 483.4 54.3 L 483.1 54.4 L 482.7 54.5 L 482.3 54.6 L 481.9 54.7 L 481.5 54.8 L 481.2 54.9 L 480.8 55.1 L 480.4 55.2 L 480.0 55.3 L 479.7 55.4 L 479.3 55.5 L 478.9 55.6 L 478.5 55.7 L 478.2 55.8 L 477.8 56.0 L 477.4 56.1 L 477.0 56.2 L 476.7 56.3 L 476.3 56.5 L 475.9 56.6 L 475.6 56.7 L 475.2 56.8 L 474.8 57.0 L 474.4 57.1 L 474.1 57.2 L 473.7 57.4 L 473.3 57.5 L 473.0 57.6 L 472.6 57.8 L 472.2 57.9 L 471.9 58.1 L 471.5 58.2 L 471.1 58.4 L 470.8 58.5 L 470.4 58.7" stroke="black" stroke-width="2" fill="none"/>
    <path id="pf__path-9-k_2" d="M 431.8 151.2 L 432.5 151.5 L 433.2 151.8 L 434.0 152.1 L 434.7 152.4 L 435.4 152.6 L 436.2 152.9 L 436.9 153.2 L 437.7 153.4 L 438.4 153.7 L 439.1 153.9 L 439.9 154.2 L 440.6 154.4 L 441.4 154.6 L 442.1 154.8 L 442.9 155.1 L 443.7 155.3 L 444.4 155.5 L 445.2 155.7 L 445.9 155.9 L 446.7 156.0 L 447.5 156.2 L 448.2 156.4 L 449.0 156.6 L 449.8 156.7 L 450.5 156.9 L 451.3 157.0 L 452.1 157.2 L 452.9 157.3 L 453.6 157.4 L 454.4 157.6 L 455.2 157.7 L 456.0 157.8 L 456.7 157.9 L 457.5 158.0 L 458.3 158.1 L 459.1 158.2 L 459.9 158.3 L 460.6 158.4 L 461.4 158.4 L 462.2 158.5 L 463.0 158.6 L 463.8 158.6 L 464.6 158.7 L 465.3 158.7 L 466.1 158.7 L 466.9 158.8 L 467.7 158.8 L 468.5 158.8 L 469.3 158.8 L 470.0 158.8 L 470.8 158.8 L 471.6 158.8 L 472.4 158.8 L 473.2 158.8 L 474.0 158.7 L 474.8 158.7 L 475.5 158.7 L 476.3 158.6 L 477.1 158.6 L 477.9 158.5 L 478.7 158.4 L 479.5 158.4 L 480.2 158.3 L 481.0 158.2 L 481.8 158.1 L 482.6 158.0 L 483.4 157.9 L 484.1 157.8 L 484.9 157.7 L 485.7 157.6 L 486.5 157.4 L 487.2 157.3 L 488.0 157.2 L 488.8 157.0 L 489.6 156.9 L 490.3 156.7 L 491.1 156.6 L 491.9 156.4 L 492.6 156.2 L 493.4 156.0 L 494.2 155.9 L 494.9 155.7 L 495.7 155.5 L 496.4 155.3 L 497.2 155.1 L 497.9 154.8 L 498.7 154.6 L 499.4 154.4 L 500.2 154.2 L 500.9 153.9 L 501.7 153.7 L 502.4 153.4 L 503.2 153.2 L 503.9 152.9 L 504.7 152.6 L 505.4 152.4 L 506.1 152.1 L 506.9 151.8 L 507.6 151.5" stroke="black" stroke-width="2" fill="none"/>
    <path id="pf__path-10-k_3" d="M 546.6 58.8 L 546.2 58.7 L 545.9 58.5 L 545.5 58.4 L 545.1 58.2 L 544.8 58.1 L 544.4 57.9 L 544.0 57.8 L 543.7 57.6 L 543.3 57.5 L 542.9 57.4 L 542.6 57.2 L 542.2 57.1 L 541.8 57.0 L 541.4 56.8 L 541.1 56.7 L 540.7 56.6 L 540.3 56.5 L 540.0 56.3 L 539.6 56.2 L 539.2 56.1 L 538.8 56.0 L 538.5 55.8 L 538.1 55.7 L 537.7 55.6 L 537.3 55.5 L 537.0 55.4 L 536.6 55.3 L 536.2 55.2 L 535.8 55.1 L 535.5 54.9 L 535.1 54.8 L 534.7 54.7 L 534.3 54.6 L 533.9 54.5 L 533.6 54.4 L 533.2 54.3 L 532.8 54.2 L 532.4 54.1 L 532.0 54.0 L 531.7 54.0 L 531.3 53.9 L 530.9 53.8 L 530.5 53.7 L 530.1 53.6 L 529.7 53.5 L 529.4 53.4 L 529.0 53.4 L 528.6 53.3 L 528.2 53.2 L 527.8 53.1 L 527.4 53.0 L 527.1 53.0 L 526.7 52.9 L 526.3 52.8 L 525.9 52.8 L 525.5 52.7 L 525.1 52.6 L 524.7 52.6 L 524.3 52.5 L 524.0 52.4 L 523.6 52.4 L 523.2 52.3 L 522.8 52.2 L 522.4 52.2 L 522.0 52.1 L 521.6 52.1 L 521.2 52.0 L 520.8 52.0 L 520.5 51.9 L 520.1 51.9 L 519.7 51.8 L 519.3 51.8 L 518.9 51.8 L 518.5 51.7 L 518.1 51.7 L 517.7 51.6 L 517.3 51.6 L 516.9 51.6 L 516.6 51.5 L 516.2 51.5 L 515.8 51.5 L 515.4 51.4 L 515.0 51.4 L 514.6 51.4 L 514.2 51.4 L 513.8 51.3 L 513.4 51.3 L 513.0 51.3 L 512.6 51.3 L 512.2 51.3 L 511.8 51.3 L 511.5 51.2 L 511.1 51.2 L 510.7 51.2 L 510.3 51.2 L 509.9 51.2 L 509.5 51.2 L 509.1 51.2 L 508.7 51.2" stroke="black" stroke-width="2" fill="none"/>
    <path id="pf__path-11-k_3" d="M 584.9 51.2 L 584.5 51.2 L 584.1 51.2 L 583.7 51.2 L 583.3 51.2 L 582.9 51.2 L 582.5 51.2 L 582.1 51.2 L 581.7 51.2 L 581.3 51.3 L 580.9 51.3 L 580.5 51.3 L 580.1 51.3 L 579.7 51.3 L 579.4 51.3 L 579.0 51.4 L 578.6 51.4 L 578.2 51.4 L 577.8 51.4 L 577.4 51.5 L 577.0 51.5 L 576.6 51.5 L 576.2 51.6 L 575.8 51.6 L 575.4 51.6 L 575.0 51.7 L 574.7 51.7 L 574.3 51.8 L 573.9 51.8 L 573.5 51.8 L 573.1 51.9 L 572.7 51.9 L 572.3 52.0 L 571.9 52.0 L 571.5 52.1 L 571.1 52.1 L 570.8 52.2 L 570.4 52.2 L 570.0 52.3 L 569.6 52.4 L 569.2 52.4 L 568.8 52.5 L 568.4 52.6 L 568.0 52.6 L 567.7 52.7 L 567.3 52.8 L 566.9 52.8 L 566.5 52.9 L 566.1 53.0 L 565.7 53.0 L 565.3 53.1 L 565.0 53.2 L 564.6 53.3 L 564.2 53.4 L 563.8 53.4 L 563.4 53.5 L 563.0 53.6 L 562.7 53.7 L 562.3 53.8 L 561.9 53.9 L 561.5 54.0 L 561.1 54.0 L 560.7 54.1 L 560.4 54.2 L 560.0 54.3 L 559.6 54.4 L 559.2 54.5 L 558.8 54.6 L 558.5 54.7 L 558.1 54.8 L 557.7 54.9 L 557.3 55.1 L 557.0 55.2 L 556.6 55.3 L 556.2 55.4 L 555.8 55.5 L 555.4 55.6 L 555.1 55.7 L 554.7 55.8 L 554.3 56.0 L 553.9 56.1 L 553.6 56.2 L 553.2 56.3 L 552.8 56.5 L 552.5 56.6 L 552.1 56.7 L 551.7 56.8 L 551.3 57.0 L 551.0 57.1 L 550.6 57.2 L 550.2 57.4 L 549.9 57.5 L 549.5 57.6 L 549.1 57.8 L 548.8 57.9 L 548.4 58.1 L 548.0 58.2 L 547.7 58.4 L 547.3 58.5 L 546.9 58.7" stroke="black" stroke-width="2" fill="none"/>
    <path id="pf__path-12-k_3" d="M 508.3 151.2 L 509.0 151.5 L 509.8 151.8 L 510.5 152.1 L 511.2 152.4 L 512.0 152.6 L 512.7 152.9 L 513.4 153.2 L 514.2 153.4 L 514.9 153.7 L 515.7 153.9 L 516.4 154.2 L 517.2 154.4 L 517.9 154.6 L 518.7 154.8 L 519.4 155.1 L 520.2 155.3 L 521.0 155.5 L 521.7 155.7 L 522.5 155.9 L 523.2 156.0 L 524.0 156.2 L 524.8 156.4 L 525.5 156.6 L 526.3 156.7 L 527.1 156.9 L 527.8 157.0 L 528.6 157.2 L 529.4 157.3 L 530.2 157.4 L 530.9 157.6 L 531.7 157.7 L 532.5 157.8 L 533.3 157.9 L 534.0 158.0 L 534.8 158.1 L 535.6 158.2 L 536.4 158.3 L 537.2 158.4 L 538.0 158.4 L 538.7 158.5 L 539.5 158.6 L 540.3 158.6 L 541.1 158.7 L 541.9 158.7 L 542.7 158.7 L 543.4 158.8 L 544.2 158.8 L 545.0 158.8 L 545.8 158.8 L 546.6 158.8 L 547.4 158.8 L 548.2 158.8 L 548.9 158.8 L 549.7 158.8 L 550.5 158.7 L 551.3 158.7 L 552.1 158.7 L 552.9 158.6 L 553.6 158.6 L 554.4 158.5 L 555.2 158.4 L 556.0 158.4 L 556.8 158.3 L 557.6 158.2 L 558.3 158.1 L 559.1 158.0 L 559.9 157.9 L 560.7 157.8 L 561.4 157.7 L 562.2 157.6 L 563.0 157.4 L 563.8 157.3 L 564.5 157.2 L 565.3 157.0 L 566.1 156.9 L 566.9 156.7 L 567.6 156.6 L 568.4 156.4 L 569.2 156.2 L 569.9 156.0 L 570.7 155.9 L 571.5 155.7 L 572.2 155.5 L 573.0 155.3 L 573.7 155.1 L 574.5 154.8 L 575.2 154.6 L 576.0 154.4 L 576.7 154.2 L 577.5 153.9 L 578.2 153.7 L 579.0 153.4 L 579.7 153.2 L 580.5 152.9 L 581.2 152.6 L 581.9 152.4 L 582.7 152.1 L 583.4 151.8 L 584.1 151.5" stroke="black" stroke-width="2" fill="none"/>
  </g>
</svg>
