<svg xmlns="http://www.w3.org/2000/svg" id="pf__figure" width="210" height="210" viewBox="0 0 210 210">
  <defs>
    <clipPath id="pf__clipPath-0">
      <rect x="5.0" y="5.0" width="200.0" height="200.0"/>
    </clipPath>
    <clipPath id="pf__clipPath-1">
      <rect x="5.0" y="5.0" width="200.0" height="200.0"/>
    </clipPath>
  </defs>
  <g id="pf__g-0">
    <line id="pf__line-0-k_0" x1="205.0" y1="105.0" x2="5.0" y2="105.0" stroke="#777" stroke-width="1" fill="none"/>
    <line id="pf__line-1-k_1" x1="155.0" y1="18.4" x2="55.0" y2="191.6" stroke="#777" stroke-width="1" fill="none"/>
    <line id="pf__line-2-k_2" x1="55.0" y1="18.4" x2="155.0" y2="191.6" stroke="#777" stroke-width="1" fill="none"/>
  </g>
  <g id="pf__g-1">
    <line id="pf__line-3-k_0" x1="180.0" y1="61.7" x2="30.0" y2="148.3" stroke="#777" stroke-width="1" fill="none"/>
    <line id="pf__line-4-k_1" x1="105.0" y1="18.4" x2="105.0" y2="191.6" stroke="#777" stroke-width="1" fill="none"/>
    <line id="pf__line-5-k_2" x1="30.0" y1="61.7" x2="180.0" y2="148.3" stroke="#777" stroke-width="1" fill="none"/>
  </g>
  <path id="pf__path-0" d="M 191.6 105.0 L 191.4 99.6 L 190.9 94.1 L 190.1 88.8 L 188.9 83.5 L 187.4 78.2 L 185.5 73.1 L 183.4 68.1 L 180.9 63.3 L 178.1 58.6 L 175.1 54.1 L 171.7 49.8 L 168.1 45.7 L 164.3 41.9 L 160.2 38.3 L 155.9 34.9 L 151.4 31.9 L 146.7 29.1 L 141.9 26.6 L 136.9 24.5 L 131.8 22.6 L 126.5 21.1 L 121.2 19.9 L 115.9 19.1 L 110.4 18.6 L 105.0 18.4 L 99.6 18.6 L 94.1 19.1 L 88.8 19.9 L 83.5 21.1 L 78.2 22.6 L 73.1 24.5 L 68.1 26.6 L 63.3 29.1 L 58.6 31.9 L 54.1 34.9 L 49.8 38.3 L 45.7 41.9 L 41.9 45.7 L 38.3 49.8 L 34.9 54.1 L 31.9 58.6 L 29.1 63.3 L 26.6 68.1 L 24.5 73.1 L 22.6 78.2 L 21.1 83.5 L 19.9 88.8 L 19.1 94.1 L 18.6 99.6 L 18.4 105.0 L 18.6 110.4 L 19.1 115.9 L 19.9 121.2 L 21.1 126.5 L 22.6 131.8 L 24.5 136.9 L 26.6 141.9 L 29.1 146.7 L 31.9 151.4 L 34.9 155.9 L 38.3 160.2 L 41.9 164.3 L 45.7 168.1 L 49.8 171.7 L 54.1 175.1 L 58.6 178.1 L 63.3 180.9 L 68.1 183.4 L 73.1 185.5 L 78.2 187.4 L 83.5 188.9 L 88.8 190.1 L 94.1 190.9 L 99.6 191.4 L 105.0 191.6 L 110.4 191.4 L 115.9 190.9 L 121.2 190.1 L 126.5 188.9 L 131.8 187.4 L 136.9 185.5 L 141.9 183.4 L 146.7 180.9 L 151.4 178.1 L 155.9 175.1 L 160.2 171.7 L 164.3 168.1 L 168.1 164.3 L 171.7 160.2 L 175.1 155.9 L 178.1 151.4 L 180.9 146.7 L 183.4 141.9 L 185.5 136.9 L 187.4 131.8 L 188.9 126.5 L 190.1 121.2 L 190.9 115.9 L 191.4 110.4 Z" stroke="black" stroke-width="1" fill="none"/>
  <path id="pf__path-1" d="M 205.0 105.0 L 155.0 18.4 L 55.0 18.4 L 5.0 105.0 L 55.0 191.6 L 155.0 191.6 Z" stroke="blue" stroke-width="2" fill="none" clip-path="url(#pf__clipPath-1)"/>
</svg>
