<svg xmlns="http://www.w3.org/2000/svg" id="pf__figure" width="210" height="210" viewBox="0 0 210 210">
  <defs>
    <clipPath id="pf__clipPath-0">
      <rect x="5.0" y="5.0" width="200.0" height="200.0"/>
    </clipPath>
    <clipPath id="pf__clipPath-1">
      <rect x="5.0" y="5.0" width="200.0" height="200.0"/>
    </clipPath>
  </defs>
  <line id="pf__line-0" x1="205.0" y1="105.0" x2="5.0" y2="105.0" stroke="#777" stroke-width="1" fill="none"/>
  <line id="pf__line-1" x1="191.6" y1="55.0" x2="18.4" y2="155.0" stroke="#777" stroke-width="1" fill="none"/>
  <line id="pf__line-2" x1="155.0" y1="18.4" x2="55.0" y2="191.6" stroke="#777" stroke-width="1" fill="none"/>
  <line id="pf__line-3" x1="105.0" y1="5.0" x2="105.0" y2="205.0" stroke="#777" stroke-width="1" fill="none"/>
  <line id="pf__line-4" x1="55.0" y1="18.4" x2="155.0" y2="191.6" stroke="#777" stroke-width="1" fill="none"/>
  <line id="pf__line-5" x1="18.4" y1="55.0" x2="191.6" y2="155.0" stroke="#777" stroke-width="1" fill="none"/>
  <path id="pf__path-0" d="M 205.0 105.0 L 191.6 55.0 L 155.0 18.4 L 105.0 5.0 L 55.0 18.4 L 18.4 55.0 L 5.0 105.0 L 18.4 155.0 L 55.0 191.6 L 105.0 205.0 L 155.0 191.6 L 191.6 155.0 Z" stroke="red" stroke-width="2" fill="none" clip-path="url(#pf__clipPath-1)"/>
  <path id="pf__path-1" d="M 205.0 105.0 L 155.0 18.4 L 55.0 18.4 L 5.0 105.0 L 55.0 191.6 L 155.0 191.6 Z" stroke="blue" stroke-width="1" fill="none" clip-path="url(#pf__clipPath-1)"/>
  <path id="pf__path-2" d="M 205.0 105.0 L 204.8 98.7 L 204.2 92.5 L 203.2 86.3 L 201.9 80.1 L 200.1 74.1 L 198.0 68.2 L 195.5 62.4 L 192.6 56.8 L 189.4 51.4 L 185.9 46.2 L 182.1 41.3 L 177.9 36.5 L 173.5 32.1 L 168.7 27.9 L 163.8 24.1 L 158.6 20.6 L 153.2 17.4 L 147.6 14.5 L 141.8 12.0 L 135.9 9.9 L 129.9 8.1 L 123.7 6.8 L 117.5 5.8 L 111.3 5.2 L 105.0 5.0 L 98.7 5.2 L 92.5 5.8 L 86.3 6.8 L 80.1 8.1 L 74.1 9.9 L 68.2 12.0 L 62.4 14.5 L 56.8 17.4 L 51.4 20.6 L 46.2 24.1 L 41.3 27.9 L 36.5 32.1 L 32.1 36.5 L 27.9 41.3 L 24.1 46.2 L 20.6 51.4 L 17.4 56.8 L 14.5 62.4 L 12.0 68.2 L 9.9 74.1 L 8.1 80.1 L 6.8 86.3 L 5.8 92.5 L 5.2 98.7 L 5.0 105.0 L 5.2 111.3 L 5.8 117.5 L 6.8 123.7 L 8.1 129.9 L 9.9 135.9 L 12.0 141.8 L 14.5 147.6 L 17.4 153.2 L 20.6 158.6 L 24.1 163.8 L 27.9 168.7 L 32.1 173.5 L 36.5 177.9 L 41.3 182.1 L 46.2 185.9 L 51.4 189.4 L 56.8 192.6 L 62.4 195.5 L 68.2 198.0 L 74.1 200.1 L 80.1 201.9 L 86.3 203.2 L 92.5 204.2 L 98.7 204.8 L 105.0 205.0 L 111.3 204.8 L 117.5 204.2 L 123.7 203.2 L 129.9 201.9 L 135.9 200.1 L 141.8 198.0 L 147.6 195.5 L 153.2 192.6 L 158.6 189.4 L 163.8 185.9 L 168.7 182.1 L 173.5 177.9 L 177.9 173.5 L 182.1 168.7 L 185.9 163.8 L 189.4 158.6 L 192.6 153.2 L 195.5 147.6 L 198.0 141.8 L 200.1 135.9 L 201.9 129.9 L 203.2 123.7 L 204.2 117.5 L 204.8 111.3 Z" stroke="black" stroke-width="2" fill="none"/>
</svg>
