<svg xmlns="http://www.w3.org/2000/svg" id="pf__figure" width="610" height="210" viewBox="0 0 610 210">
  <defs>
    <clipPath id="pf__clipPath-0">
      <rect x="5.0" y="5.0" width="600.0" height="200.0"/>
    </clipPath>
    <clipPath id="pf__clipPath-1">
      <rect x="5.0" y="5.0" width="600.0" height="200.0"/>
    </clipPath>
  </defs>
  <g id="pf__g-0">
    <line id="pf__line-0-k_0" x1="205.0" y1="105.0" x2="5.0" y2="105.0" stroke="#777" stroke-width="1" fill="none"/>
    <line id="pf__line-1-k_1" x1="105.0" y1="5.0" x2="105.0" y2="205.0" stroke="#777" stroke-width="1" fill="none"/>
  </g>
  <path id="pf__path-0" d="M 205.0 105.0 L 204.8 98.7 L 204.2 92.5 L 203.2 86.3 L 201.9 80.1 L 200.1 74.1 L 198.0 68.2 L 195.5 62.4 L 192.6 56.8 L 189.4 51.4 L 185.9 46.2 L 182.1 41.3 L 177.9 36.5 L 173.5 32.1 L 168.7 27.9 L 163.8 24.1 L 158.6 20.6 L 153.2 17.4 L 147.6 14.5 L 141.8 12.0 L 135.9 9.9 L 129.9 8.1 L 123.7 6.8 L 117.5 5.8 L 111.3 5.2 L 105.0 5.0 L 98.7 5.2 L 92.5 5.8 L 86.3 6.8 L 80.1 8.1 L 74.1 9.9 L 68.2 12.0 L 62.4 14.5 L 56.8 17.4 L 51.4 20.6 L 46.2 24.1 L 41.3 27.9 L 36.5 32.1 L 32.1 36.5 L 27.9 41.3 L 24.1 46.2 L 20.6 51.4 L 17.4 56.8 L 14.5 62.4 L 12.0 68.2 L 9.9 74.1 L 8.1 80.1 L 6.8 86.3 L 5.8 92.5 L 5.2 98.7 L 5.0 105.0 L 5.2 111.3 L 5.8 117.5 L 6.8 123.7 L 8.1 129.9 L 9.9 135.9 L 12.0 141.8 L 14.5 147.6 L 17.4 153.2 L 20.6 158.6 L 24.1 163.8 L 27.9 168.7 L 32.1 173.5 L 36.5 177.9 L 41.3 182.1 L 46.2 185.9 L 51.4 189.4 L 56.8 192.6 L 62.4 195.5 L 68.2 198.0 L 74.1 200.1 L 80.1 201.9 L 86.3 203.2 L 92.5 204.2 L 98.7 204.8 L 105.0 205.0 L 111.3 204.8 L 117.5 204.2 L 123.7 203.2 L 129.9 201.9 L 135.9 200.1 L 141.8 198.0 L 147.6 195.5 L 153.2 192.6 L 158.6 189.4 L 163.8 185.9 L 168.7 182.1 L 173.5 177.9 L 177.9 173.5 L 182.1 168.7 L 185.9 163.8 L 189.4 158.6 L 192.6 153.2 L 195.5 147.6 L 198.0 141.8 L 200.1 135.9 L 201.9 129.9 L 203.2 123.7 L 204.2 117.5 L 204.8 111.3 Z" stroke="black" stroke-width="2" fill="none"/>
  <g id="pf__g-1">
    <line id="pf__line-2-k_0" x1="305.0" y1="140.4" x2="234.3" y2="69.6" stroke="#777" stroke-width="1" fill="none"/>
    <line id="pf__line-3-k_1" x1="446.4" y1="140.4" x2="375.7" y2="69.6" stroke="#777" stroke-width="1" fill="none"/>
    <line id="pf__line-4-k_2" x1="587.8" y1="140.4" x2="517.1" y2="69.6" stroke="#777" stroke-width="1" fill="none"/>
  </g>
  <g id="pf__g-2">
    <line id="pf__line-5-k_0" x1="305.0" y1="140.4" x2="375.7" y2="69.6" stroke="#777" stroke-width="1" fill="none"/>
    <line id="pf__line-6-k_1" x1="446.4" y1="140.4" x2="517.1" y2="69.6" stroke="#777" stroke-width="1" fill="none"/>
  </g>
  <g id="pf__g-3">
    <path id="pf__path-1-k_0" d="M 375.7 69.6 L 374.6 68.5 L 373.5 67.5 L 372.3 66.4 L 371.1 65.3 L 369.9 64.3 L 368.7 63.3 L 367.5 62.3 L 366.3 61.3 L 365.0 60.4 L 363.8 59.5 L 362.5 58.5 L 361.2 57.6 L 359.9 56.8 L 358.6 55.9 L 357.2 55.1 L 355.9 54.3 L 354.5 53.5 L 353.2 52.7 L 351.8 52.0 L 350.4 51.3 L 349.0 50.6 L 347.6 49.9 L 346.2 49.2 L 344.7 48.6 L 343.3 48.0 L 341.8 47.4 L 340.3 46.8 L 338.9 46.3 L 337.4 45.7 L 335.9 45.2 L 334.4 44.8 L 332.9 44.3 L 331.4 43.9 L 329.9 43.5 L 328.3 43.1 L 326.8 42.8 L 325.3 42.4 L 323.7 42.1 L 322.2 41.8 L 320.6 41.6 L 319.1 41.4 L 317.5 41.1 L 316.0 41.0 L 314.4 40.8 L 312.8 40.7 L 311.3 40.6 L 309.7 40.5 L 308.1 40.4 L 306.6 40.4 L 305.0 40.4 L 303.4 40.4 L 301.9 40.4 L 300.3 40.5 L 298.7 40.6 L 297.2 40.7 L 295.6 40.8 L 294.0 41.0 L 292.5 41.1 L 290.9 41.4 L 289.4 41.6 L 287.8 41.8 L 286.3 42.1 L 284.7 42.4 L 283.2 42.8 L 281.7 43.1 L 280.1 43.5 L 278.6 43.9 L 277.1 44.3 L 275.6 44.8 L 274.1 45.2 L 272.6 45.7 L 271.1 46.3 L 269.7 46.8 L 268.2 47.4 L 266.7 48.0 L 265.3 48.6 L 263.8 49.2 L 262.4 49.9 L 261.0 50.6 L 259.6 51.3 L 258.2 52.0 L 256.8 52.7 L 255.5 53.5 L 254.1 54.3 L 252.8 55.1 L 251.4 55.9 L 250.1 56.8 L 248.8 57.6 L 247.5 58.5 L 246.2 59.5 L 245.0 60.4 L 243.7 61.3 L 242.5 62.3 L 241.3 63.3 L 240.1 64.3 L 238.9 65.3 L 237.7 66.4 L 236.5 67.5 L 235.4 68.5" stroke="black" stroke-width="2" fill="none"/>
    <path id="pf__path-2-k_0" d="M 305.0 140.4 L 306.1 141.5 L 307.3 142.5 L 308.4 143.6 L 309.6 144.7 L 310.8 145.7 L 312.0 146.7 L 313.2 147.7 L 314.4 148.7 L 315.7 149.6 L 316.9 150.5 L 318.2 151.5 L 319.5 152.4 L 320.8 153.2 L 322.1 154.1 L 323.5 154.9 L 324.8 155.7 L 326.2 156.5 L 327.5 157.3 L 328.9 158.0 L 330.3 158.7 L 331.7 159.4 L 333.1 160.1 L 334.6 160.8 L 336.0 161.4 L 337.4 162.0 L 338.9 162.6 L 340.4 163.2 L 341.8 163.7 L 343.3 164.3 L 344.8 164.8 L 346.3 165.2 L 347.8 165.7 L 349.3 166.1 L 350.8 166.5 L 352.4 166.9 L 353.9 167.2 L 355.4 167.6 L 357.0 167.9 L 358.5 168.2 L 360.1 168.4 L 361.6 168.6 L 363.2 168.9 L 364.7 169.0 L 366.3 169.2 L 367.9 169.3 L 369.4 169.4 L 371.0 169.5 L 372.6 169.6 L 374.1 169.6 L 375.7 169.6 L 377.3 169.6 L 378.9 169.6 L 380.4 169.5 L 382.0 169.4 L 383.6 169.3 L 385.1 169.2 L 386.7 169.0 L 388.2 168.9 L 389.8 168.6 L 391.4 168.4 L 392.9 168.2 L 394.4 167.9 L 396.0 167.6 L 397.5 167.2 L 399.1 166.9 L 400.6 166.5 L 402.1 166.1 L 403.6 165.7 L 405.1 165.2 L 406.6 164.8 L 408.1 164.3 L 409.6 163.7 L 411.1 163.2 L 412.5 162.6 L 414.0 162.0 L 415.4 161.4 L 416.9 160.8 L 418.3 160.1 L 419.7 159.4 L 421.1 158.7 L 422.5 158.0 L 423.9 157.3 L 425.3 156.5 L 426.6 155.7 L 428.0 154.9 L 429.3 154.1 L 430.6 153.2 L 431.9 152.4 L 433.2 151.5 L 434.5 150.5 L 435.8 149.6 L 437.0 148.7 L 438.2 147.7 L 439.5 146.7 L 440.7 145.7 L 441.8 144.7 L 443.0 143.6 L 444.2 142.5 L 445.3 141.5" stroke="black" stroke-width="2" fill="none"/>
    <path id="pf__path-3-k_1" d="M 517.1 69.6 L 516.0 68.5 L 514.9 67.5 L 513.7 66.4 L 512.6 65.3 L 511.4 64.3 L 510.2 63.3 L 508.9 62.3 L 507.7 61.3 L 506.5 60.4 L 505.2 59.5 L 503.9 58.5 L 502.6 57.6 L 501.3 56.8 L 500.0 55.9 L 498.7 55.1 L 497.3 54.3 L 496.0 53.5 L 494.6 52.7 L 493.2 52.0 L 491.8 51.3 L 490.4 50.6 L 489.0 49.9 L 487.6 49.2 L 486.1 48.6 L 484.7 48.0 L 483.2 47.4 L 481.8 46.8 L 480.3 46.3 L 478.8 45.7 L 477.3 45.2 L 475.8 44.8 L 474.3 44.3 L 472.8 43.9 L 471.3 43.5 L 469.8 43.1 L 468.2 42.8 L 466.7 42.4 L 465.2 42.1 L 463.6 41.8 L 462.1 41.6 L 460.5 41.4 L 459.0 41.1 L 457.4 41.0 L 455.8 40.8 L 454.3 40.7 L 452.7 40.6 L 451.1 40.5 L 449.6 40.4 L 448.0 40.4 L 446.4 40.4 L 444.9 40.4 L 443.3 40.4 L 441.7 40.5 L 440.1 40.6 L 438.6 40.7 L 437.0 40.8 L 435.4 41.0 L 433.9 41.1 L 432.3 41.4 L 430.8 41.6 L 429.2 41.8 L 427.7 42.1 L 426.1 42.4 L 424.6 42.8 L 423.1 43.1 L 421.6 43.5 L 420.0 43.9 L 418.5 44.3 L 417.0 44.8 L 415.5 45.2 L 414.0 45.7 L 412.5 46.3 L 411.1 46.8 L 409.6 47.4 L 408.2 48.0 L 406.7 48.6 L 405.3 49.2 L 403.8 49.9 L 402.4 50.6 L 401.0 51.3 L 399.6 52.0 L 398.2 52.7 L 396.9 53.5 L 395.5 54.3 L 394.2 55.1 L 392.8 55.9 L 391.5 56.8 L 390.2 57.6 L 388.9 58.5 L 387.6 59.5 L 386.4 60.4 L 385.1 61.3 L 383.9 62.3 L 382.7 63.3 L 381.5 64.3 L 380.3 65.3 L 379.1 66.4 L 378.0 67.5 L 376.8 68.5" stroke="black" stroke-width="2" fill="none"/>
    <path id="pf__path-4-k_1" d="M 446.4 140.4 L 447.5 141.5 L 448.7 142.5 L 449.8 143.6 L 451.0 144.7 L 452.2 145.7 L 453.4 146.7 L 454.6 147.7 L 455.8 148.7 L 457.1 149.6 L 458.4 150.5 L 459.6 151.5 L 460.9 152.4 L 462.2 153.2 L 463.5 154.1 L 464.9 154.9 L 466.2 155.7 L 467.6 156.5 L 469.0 157.3 L 470.3 158.0 L 471.7 158.7 L 473.1 159.4 L 474.6 160.1 L 476.0 160.8 L 477.4 161.4 L 478.9 162.0 L 480.3 162.6 L 481.8 163.2 L 483.3 163.7 L 484.7 164.3 L 486.2 164.8 L 487.7 165.2 L 489.2 165.7 L 490.7 166.1 L 492.3 166.5 L 493.8 166.9 L 495.3 167.2 L 496.9 167.6 L 498.4 167.9 L 499.9 168.2 L 501.5 168.4 L 503.0 168.6 L 504.6 168.9 L 506.2 169.0 L 507.7 169.2 L 509.3 169.3 L 510.9 169.4 L 512.4 169.5 L 514.0 169.6 L 515.6 169.6 L 517.1 169.6 L 518.7 169.6 L 520.3 169.6 L 521.8 169.5 L 523.4 169.4 L 525.0 169.3 L 526.5 169.2 L 528.1 169.0 L 529.7 168.9 L 531.2 168.6 L 532.8 168.4 L 534.3 168.2 L 535.9 167.9 L 537.4 167.6 L 538.9 167.2 L 540.5 166.9 L 542.0 166.5 L 543.5 166.1 L 545.0 165.7 L 546.5 165.2 L 548.0 164.8 L 549.5 164.3 L 551.0 163.7 L 552.5 163.2 L 553.9 162.6 L 555.4 162.0 L 556.8 161.4 L 558.3 160.8 L 559.7 160.1 L 561.1 159.4 L 562.5 158.7 L 563.9 158.0 L 565.3 157.3 L 566.7 156.5 L 568.0 155.7 L 569.4 154.9 L 570.7 154.1 L 572.0 153.2 L 573.3 152.4 L 574.6 151.5 L 575.9 150.5 L 577.2 149.6 L 578.4 148.7 L 579.7 147.7 L 580.9 146.7 L 582.1 145.7 L 583.3 144.7 L 584.4 143.6 L 585.6 142.5 L 586.7 141.5" stroke="black" stroke-width="2" fill="none"/>
  </g>
</svg>
