<svg xmlns="http://www.w3.org/2000/svg" id="pf__figure" width="110" height="110" viewBox="0 0 110 110">
  <defs>
    <clipPath id="pf__clipPath-0">
      <rect x="5.0" y="5.0" width="100.0" height="100.0"/>
    </clipPath>
    <clipPath id="pf__clipPath-1">
      <rect x="5.0" y="5.0" width="100.0" height="100.0"/>
    </clipPath>
  </defs>
  <path id="pf__path-0" d="M 105.0 55.0 L 104.9 51.9 L 104.6 48.7 L 104.1 45.6 L 103.4 42.6 L 102.6 39.5 L 101.5 36.6 L 100.2 33.7 L 98.8 30.9 L 97.2 28.2 L 95.5 25.6 L 93.5 23.1 L 91.4 20.8 L 89.2 18.6 L 86.9 16.5 L 84.4 14.5 L 81.8 12.8 L 79.1 11.2 L 76.3 9.8 L 73.4 8.5 L 70.5 7.4 L 67.4 6.6 L 64.4 5.9 L 61.3 5.4 L 58.1 5.1 L 55.0 5.0 L 51.9 5.1 L 48.7 5.4 L 45.6 5.9 L 42.6 6.6 L 39.5 7.4 L 36.6 8.5 L 33.7 9.8 L 30.9 11.2 L 28.2 12.8 L 25.6 14.5 L 23.1 16.5 L 20.8 18.6 L 18.6 20.8 L 16.5 23.1 L 14.5 25.6 L 12.8 28.2 L 11.2 30.9 L 9.8 33.7 L 8.5 36.6 L 7.4 39.5 L 6.6 42.6 L 5.9 45.6 L 5.4 48.7 L 5.1 51.9 L 5.0 55.0 L 5.1 58.1 L 5.4 61.3 L 5.9 64.4 L 6.6 67.4 L 7.4 70.5 L 8.5 73.4 L 9.8 76.3 L 11.2 79.1 L 12.8 81.8 L 14.5 84.4 L 16.5 86.9 L 18.6 89.2 L 20.8 91.4 L 23.1 93.5 L 25.6 95.5 L 28.2 97.2 L 30.9 98.8 L 33.7 100.2 L 36.6 101.5 L 39.5 102.6 L 42.6 103.4 L 45.6 104.1 L 48.7 104.6 L 51.9 104.9 L 55.0 105.0 L 58.1 104.9 L 61.3 104.6 L 64.4 104.1 L 67.4 103.4 L 70.5 102.6 L 73.4 101.5 L 76.3 100.2 L 79.1 98.8 L 81.8 97.2 L 84.4 95.5 L 86.9 93.5 L 89.2 91.4 L 91.4 89.2 L 93.5 86.9 L 95.5 84.4 L 97.2 81.8 L 98.8 79.1 L 100.2 76.3 L 101.5 73.4 L 102.6 70.5 L 103.4 67.4 L 104.1 64.4 L 104.6 61.3 L 104.9 58.1 Z" stroke="black" stroke-width="2" fill="none"/>
  <path id="pf__path-1" d="M 105.0 55.0 L 80.0 11.7 L 30.0 11.7 L 5.0 55.0 L 30.0 98.3 L 80.0 98.3 Z" stroke="red" stroke-width="1" fill="none" clip-path="url(#pf__clipPath-1)"/>
</svg>
