<svg xmlns="http://www.w3.org/2000/svg" id="volume-knobs-figure" width="260" height="460" viewBox="0 0 260 460">
  <defs>
    <clipPath id="volume-knobs-clipPath-0">
      <rect x="30.0" y="30.0" width="200.0" height="400.0"/>
    </clipPath>
    <clipPath id="volume-knobs-clipPath-1">
      <rect x="30.0" y="30.0" width="200.0" height="400.0"/>
    </clipPath>
  </defs>
  <g id="volume-knobs-grid-axes">
    <g id="volume-knobs-grid" stroke="#ccc" stroke-width="1">
      <line x1="30.0" y1="430.0" x2="30.0" y2="30.0"/>
      <line x1="74.4" y1="430.0" x2="74.4" y2="30.0"/>
      <line x1="118.9" y1="430.0" x2="118.9" y2="30.0"/>
      <line x1="163.3" y1="430.0" x2="163.3" y2="30.0"/>
      <line x1="207.8" y1="430.0" x2="207.8" y2="30.0"/>
      <line x1="30.0" y1="430.0" x2="230.0" y2="430.0"/>
      <line x1="30.0" y1="385.6" x2="230.0" y2="385.6"/>
      <line x1="30.0" y1="341.1" x2="230.0" y2="341.1"/>
      <line x1="30.0" y1="296.7" x2="230.0" y2="296.7"/>
      <line x1="30.0" y1="252.2" x2="230.0" y2="252.2"/>
      <line x1="30.0" y1="207.8" x2="230.0" y2="207.8"/>
      <line x1="30.0" y1="163.3" x2="230.0" y2="163.3"/>
      <line x1="30.0" y1="118.9" x2="230.0" y2="118.9"/>
      <line x1="30.0" y1="74.4" x2="230.0" y2="74.4"/>
    </g>
    <g id="volume-knobs-axes" stroke="black" stroke-width="2">
      <line id="volume-knobs-line-14" x1="30.0" y1="430.0" x2="230.0" y2="430.0" stroke="black" stroke-width="2"/>
      <g>
        <line id="volume-knobs-line-15" x1="74.4" y1="433.0" x2="74.4" y2="427.0"/>
        <line id="volume-knobs-line-16" x1="118.9" y1="433.0" x2="118.9" y2="427.0"/>
        <line id="volume-knobs-line-17" x1="163.3" y1="433.0" x2="163.3" y2="427.0"/>
        <line id="volume-knobs-line-18" x1="207.8" y1="433.0" x2="207.8" y2="427.0"/>
      </g>
      <line id="volume-knobs-line-19" x1="30.0" y1="430.0" x2="30.0" y2="30.0" stroke="black" stroke-width="2"/>
      <g>
        <line id="volume-knobs-line-20" x1="27.0" y1="341.1" x2="33.0" y2="341.1"/>
        <line id="volume-knobs-line-21" x1="27.0" y1="252.2" x2="33.0" y2="252.2"/>
        <line id="volume-knobs-line-22" x1="27.0" y1="163.3" x2="33.0" y2="163.3"/>
        <line id="volume-knobs-line-23" x1="27.0" y1="74.4" x2="33.0" y2="74.4"/>
      </g>
    </g>
    <g id="volume-knobs-label-0" transform="translate(226.0,426.0) translate(-10.4,-8.2)">
      <g id="volume-knobs-g-0">
        <svg xmlns:xlink="http://www.w3.org/1999/xlink" style="vertical-align: -0.200px" width="10.352px" height="8.200px" role="img" focusable="false" viewBox="0 -442 572 453" x="0.0" y="0.0">
          <defs>
            <path id="volume-knobs-MJX-2-TEX-I-1D465" d="M52 289Q59 331 106 386T222 442Q257 442 286 424T329 379Q371 442 430 442Q467 442 494 420T522 361Q522 332 508 314T481 292T458 288Q439 288 427 299T415 328Q415 374 465 391Q454 404 425 404Q412 404 406 402Q368 386 350 336Q290 115 290 78Q290 50 306 38T341 26Q378 26 414 59T463 140Q466 150 469 151T485 153H489Q504 153 504 145Q504 144 502 134Q486 77 440 33T333 -11Q263 -11 227 52Q186 -10 133 -10H127Q78 -10 57 16T35 71Q35 103 54 123T99 143Q142 143 142 101Q142 81 130 66T107 46T94 41L91 40Q91 39 97 36T113 29T132 26Q168 26 194 71Q203 87 217 139T245 247T261 313Q266 340 266 352Q266 380 251 392T217 404Q177 404 142 372T93 290Q91 281 88 280T72 278H58Q52 284 52 289Z"/>
          </defs>
          <g stroke="currentColor" fill="currentColor" stroke-width="0" transform="scale(1,-1)">
            <g data-mml-node="math">
              <g data-mml-node="mi" data-semantic-type="identifier" data-semantic-role="latinletter" data-semantic-font="italic" data-semantic-annotation="clearspeak:simple" data-semantic-id="0" data-semantic-speech="x">
                <use data-c="1D465" xlink:href="#volume-knobs-MJX-2-TEX-I-1D465"/>
              </g>
            </g>
          </g>
        </svg>
      </g>
    </g>
    <g id="volume-knobs-label-1" transform="translate(34.0,34.0) translate(0.0,-0.0)">
      <g id="volume-knobs-g-1">
        <svg xmlns:xlink="http://www.w3.org/1999/xlink" style="vertical-align: -0.400px" width="13.920px" height="12.760px" role="img" focusable="false" viewBox="0 -683 769 705" x="0.0" y="0.0">
          <defs>
            <path id="volume-knobs-MJX-3-TEX-I-1D449" d="M52 648Q52 670 65 683H76Q118 680 181 680Q299 680 320 683H330Q336 677 336 674T334 656Q329 641 325 637H304Q282 635 274 635Q245 630 242 620Q242 618 271 369T301 118L374 235Q447 352 520 471T595 594Q599 601 599 609Q599 633 555 637Q537 637 537 648Q537 649 539 661Q542 675 545 679T558 683Q560 683 570 683T604 682T668 681Q737 681 755 683H762Q769 676 769 672Q769 655 760 640Q757 637 743 637Q730 636 719 635T698 630T682 623T670 615T660 608T652 599T645 592L452 282Q272 -9 266 -16Q263 -18 259 -21L241 -22H234Q216 -22 216 -15Q213 -9 177 305Q139 623 138 626Q133 637 76 637H59Q52 642 52 648Z"/>
          </defs>
          <g stroke="currentColor" fill="currentColor" stroke-width="0" transform="scale(1,-1)">
            <g data-mml-node="math">
              <g data-mml-node="mi" data-semantic-type="identifier" data-semantic-role="latinletter" data-semantic-font="italic" data-semantic-annotation="clearspeak:simple" data-semantic-id="0" data-semantic-speech="upper V">
                <use data-c="1D449" xlink:href="#volume-knobs-MJX-3-TEX-I-1D449"/>
              </g>
            </g>
          </g>
        </svg>
      </g>
    </g>
    <g id="volume-knobs-label-2" transform="translate(74.4,441.0) translate(-9.0,-0.0)">
      <g id="volume-knobs-g-2">
        <svg xmlns:xlink="http://www.w3.org/1999/xlink" style="vertical-align: -0.400px" width="18.096px" height="12.456px" role="img" focusable="false" viewBox="0 -666 1000 688" x="0.0" y="0.0">
          <defs>
            <path id="volume-knobs-MJX-4-TEX-N-31" d="M213 578L200 573Q186 568 160 563T102 556H83V602H102Q149 604 189 617T245 641T273 663Q275 666 285 666Q294 666 302 660V361L303 61Q310 54 315 52T339 48T401 46H427V0H416Q395 3 257 3Q121 3 100 0H88V46H114Q136 46 152 46T177 47T193 50T201 52T207 57T213 61V578Z"/>
            <path id="volume-knobs-MJX-4-TEX-N-30" d="M96 585Q152 666 249 666Q297 666 345 640T423 548Q460 465 460 320Q460 165 417 83Q397 41 362 16T301 -15T250 -22Q224 -22 198 -16T137 16T82 83Q39 165 39 320Q39 494 96 585ZM321 597Q291 629 250 629Q208 629 178 597Q153 571 145 525T137 333Q137 175 145 125T181 46Q209 16 250 16Q290 16 318 46Q347 76 354 130T362 333Q362 478 354 524T321 597Z"/>
          </defs>
          <g stroke="currentColor" fill="currentColor" stroke-width="0" transform="scale(1,-1)">
            <g data-mml-node="math">
              <g data-mml-node="mtext" data-semantic-type="text" data-semantic-role="unknown" data-semantic-font="normal" data-semantic-annotation="clearspeak:unit" data-semantic-id="0" data-semantic-speech="10">
                <use data-c="31" xlink:href="#volume-knobs-MJX-4-TEX-N-31"/>
                <use data-c="30" xlink:href="#volume-knobs-MJX-4-TEX-N-30" transform="translate(500,0)"/>
              </g>
            </g>
          </g>
        </svg>
      </g>
    </g>
    <g id="volume-knobs-label-3" transform="translate(118.9,441.0) translate(-9.0,-0.0)">
      <g id="volume-knobs-g-3">
        <svg xmlns:xlink="http://www.w3.org/1999/xlink" style="vertical-align: -0.400px" width="18.096px" height="12.456px" role="img" focusable="false" viewBox="0 -666 1000 688" x="0.0" y="0.0">
          <defs>
            <path id="volume-knobs-MJX-5-TEX-N-32" d="M109 429Q82 429 66 447T50 491Q50 562 103 614T235 666Q326 666 387 610T449 465Q449 422 429 383T381 315T301 241Q265 210 201 149L142 93L218 92Q375 92 385 97Q392 99 409 186V189H449V186Q448 183 436 95T421 3V0H50V19V31Q50 38 56 46T86 81Q115 113 136 137Q145 147 170 174T204 211T233 244T261 278T284 308T305 340T320 369T333 401T340 431T343 464Q343 527 309 573T212 619Q179 619 154 602T119 569T109 550Q109 549 114 549Q132 549 151 535T170 489Q170 464 154 447T109 429Z"/>
            <path id="volume-knobs-MJX-5-TEX-N-30" d="M96 585Q152 666 249 666Q297 666 345 640T423 548Q460 465 460 320Q460 165 417 83Q397 41 362 16T301 -15T250 -22Q224 -22 198 -16T137 16T82 83Q39 165 39 320Q39 494 96 585ZM321 597Q291 629 250 629Q208 629 178 597Q153 571 145 525T137 333Q137 175 145 125T181 46Q209 16 250 16Q290 16 318 46Q347 76 354 130T362 333Q362 478 354 524T321 597Z"/>
          </defs>
          <g stroke="currentColor" fill="currentColor" stroke-width="0" transform="scale(1,-1)">
            <g data-mml-node="math">
              <g data-mml-node="mtext" data-semantic-type="text" data-semantic-role="unknown" data-semantic-font="normal" data-semantic-annotation="clearspeak:unit" data-semantic-id="0" data-semantic-speech="20">
                <use data-c="32" xlink:href="#volume-knobs-MJX-5-TEX-N-32"/>
                <use data-c="30" xlink:href="#volume-knobs-MJX-5-TEX-N-30" transform="translate(500,0)"/>
              </g>
            </g>
          </g>
        </svg>
      </g>
    </g>
    <g id="volume-knobs-label-4" transform="translate(163.3,441.0) translate(-9.0,-0.0)">
      <g id="volume-knobs-g-4">
        <svg xmlns:xlink="http://www.w3.org/1999/xlink" style="vertical-align: -0.400px" width="18.096px" height="12.456px" role="img" focusable="false" viewBox="0 -666 1000 688" x="0.0" y="0.0">
          <defs>
            <path id="volume-knobs-MJX-6-TEX-N-33" d="M127 463Q100 463 85 480T69 524Q69 579 117 622T233 665Q268 665 277 664Q351 652 390 611T430 522Q430 470 396 421T302 350L299 348Q299 347 308 345T337 336T375 315Q457 262 457 175Q457 96 395 37T238 -22Q158 -22 100 21T42 130Q42 158 60 175T105 193Q133 193 151 175T169 130Q169 119 166 110T159 94T148 82T136 74T126 70T118 67L114 66Q165 21 238 21Q293 21 321 74Q338 107 338 175V195Q338 290 274 322Q259 328 213 329L171 330L168 332Q166 335 166 348Q166 366 174 366Q202 366 232 371Q266 376 294 413T322 525V533Q322 590 287 612Q265 626 240 626Q208 626 181 615T143 592T132 580H135Q138 579 143 578T153 573T165 566T175 555T183 540T186 520Q186 498 172 481T127 463Z"/>
            <path id="volume-knobs-MJX-6-TEX-N-30" d="M96 585Q152 666 249 666Q297 666 345 640T423 548Q460 465 460 320Q460 165 417 83Q397 41 362 16T301 -15T250 -22Q224 -22 198 -16T137 16T82 83Q39 165 39 320Q39 494 96 585ZM321 597Q291 629 250 629Q208 629 178 597Q153 571 145 525T137 333Q137 175 145 125T181 46Q209 16 250 16Q290 16 318 46Q347 76 354 130T362 333Q362 478 354 524T321 597Z"/>
          </defs>
          <g stroke="currentColor" fill="currentColor" stroke-width="0" transform="scale(1,-1)">
            <g data-mml-node="math">
              <g data-mml-node="mtext" data-semantic-type="text" data-semantic-role="unknown" data-semantic-font="normal" data-semantic-annotation="clearspeak:unit" data-semantic-id="0" data-semantic-speech="30">
                <use data-c="33" xlink:href="#volume-knobs-MJX-6-TEX-N-33"/>
                <use data-c="30" xlink:href="#volume-knobs-MJX-6-TEX-N-30" transform="translate(500,0)"/>
              </g>
            </g>
          </g>
        </svg>
      </g>
    </g>
    <g id="volume-knobs-label-5" transform="translate(207.8,441.0) translate(-9.0,-0.0)">
      <g id="volume-knobs-g-5">
        <svg xmlns:xlink="http://www.w3.org/1999/xlink" style="vertical-align: -0.400px" width="18.096px" height="12.648px" role="img" focusable="false" viewBox="0 -677 1000 699" x="0.0" y="0.0">
          <defs>
            <path id="volume-knobs-MJX-7-TEX-N-34" d="M462 0Q444 3 333 3Q217 3 199 0H190V46H221Q241 46 248 46T265 48T279 53T286 61Q287 63 287 115V165H28V211L179 442Q332 674 334 675Q336 677 355 677H373L379 671V211H471V165H379V114Q379 73 379 66T385 54Q393 47 442 46H471V0H462ZM293 211V545L74 212L183 211H293Z"/>
            <path id="volume-knobs-MJX-7-TEX-N-30" d="M96 585Q152 666 249 666Q297 666 345 640T423 548Q460 465 460 320Q460 165 417 83Q397 41 362 16T301 -15T250 -22Q224 -22 198 -16T137 16T82 83Q39 165 39 320Q39 494 96 585ZM321 597Q291 629 250 629Q208 629 178 597Q153 571 145 525T137 333Q137 175 145 125T181 46Q209 16 250 16Q290 16 318 46Q347 76 354 130T362 333Q362 478 354 524T321 597Z"/>
          </defs>
          <g stroke="currentColor" fill="currentColor" stroke-width="0" transform="scale(1,-1)">
            <g data-mml-node="math">
              <g data-mml-node="mtext" data-semantic-type="text" data-semantic-role="unknown" data-semantic-font="normal" data-semantic-annotation="clearspeak:unit" data-semantic-id="0" data-semantic-speech="40">
                <use data-c="34" xlink:href="#volume-knobs-MJX-7-TEX-N-34"/>
                <use data-c="30" xlink:href="#volume-knobs-MJX-7-TEX-N-30" transform="translate(500,0)"/>
              </g>
            </g>
          </g>
        </svg>
      </g>
    </g>
    <g id="volume-knobs-label-6" transform="translate(19.0,341.1) translate(-18.1,-6.2)">
      <g id="volume-knobs-g-6">
        <svg xmlns:xlink="http://www.w3.org/1999/xlink" style="vertical-align: -0.400px" width="18.096px" height="12.456px" role="img" focusable="false" viewBox="0 -666 1000 688" x="0.0" y="0.0">
          <defs>
            <path id="volume-knobs-MJX-8-TEX-N-32" d="M109 429Q82 429 66 447T50 491Q50 562 103 614T235 666Q326 666 387 610T449 465Q449 422 429 383T381 315T301 241Q265 210 201 149L142 93L218 92Q375 92 385 97Q392 99 409 186V189H449V186Q448 183 436 95T421 3V0H50V19V31Q50 38 56 46T86 81Q115 113 136 137Q145 147 170 174T204 211T233 244T261 278T284 308T305 340T320 369T333 401T340 431T343 464Q343 527 309 573T212 619Q179 619 154 602T119 569T109 550Q109 549 114 549Q132 549 151 535T170 489Q170 464 154 447T109 429Z"/>
            <path id="volume-knobs-MJX-8-TEX-N-30" d="M96 585Q152 666 249 666Q297 666 345 640T423 548Q460 465 460 320Q460 165 417 83Q397 41 362 16T301 -15T250 -22Q224 -22 198 -16T137 16T82 83Q39 165 39 320Q39 494 96 585ZM321 597Q291 629 250 629Q208 629 178 597Q153 571 145 525T137 333Q137 175 145 125T181 46Q209 16 250 16Q290 16 318 46Q347 76 354 130T362 333Q362 478 354 524T321 597Z"/>
          </defs>
          <g stroke="currentColor" fill="currentColor" stroke-width="0" transform="scale(1,-1)">
            <g data-mml-node="math">
              <g data-mml-node="mtext" data-semantic-type="text" data-semantic-role="unknown" data-semantic-font="normal" data-semantic-annotation="clearspeak:unit" data-semantic-id="0" data-semantic-speech="20">
                <use data-c="32" xlink:href="#volume-knobs-MJX-8-TEX-N-32"/>
                <use data-c="30" xlink:href="#volume-knobs-MJX-8-TEX-N-30" transform="translate(500,0)"/>
              </g>
            </g>
          </g>
        </svg>
      </g>
    </g>
    <g id="volume-knobs-label-7" transform="translate(19.0,252.2) translate(-18.1,-6.3)">
      <g id="volume-knobs-g-7">
        <svg xmlns:xlink="http://www.w3.org/1999/xlink" style="vertical-align: -0.400px" width="18.096px" height="12.648px" role="img" focusable="false" viewBox="0 -677 1000 699" x="0.0" y="0.0">
          <defs>
            <path id="volume-knobs-MJX-9-TEX-N-34" d="M462 0Q444 3 333 3Q217 3 199 0H190V46H221Q241 46 248 46T265 48T279 53T286 61Q287 63 287 115V165H28V211L179 442Q332 674 334 675Q336 677 355 677H373L379 671V211H471V165H379V114Q379 73 379 66T385 54Q393 47 442 46H471V0H462ZM293 211V545L74 212L183 211H293Z"/>
            <path id="volume-knobs-MJX-9-TEX-N-30" d="M96 585Q152 666 249 666Q297 666 345 640T423 548Q460 465 460 320Q460 165 417 83Q397 41 362 16T301 -15T250 -22Q224 -22 198 -16T137 16T82 83Q39 165 39 320Q39 494 96 585ZM321 597Q291 629 250 629Q208 629 178 597Q153 571 145 525T137 333Q137 175 145 125T181 46Q209 16 250 16Q290 16 318 46Q347 76 354 130T362 333Q362 478 354 524T321 597Z"/>
          </defs>
          <g stroke="currentColor" fill="currentColor" stroke-width="0" transform="scale(1,-1)">
            <g data-mml-node="math">
              <g data-mml-node="mtext" data-semantic-type="text" data-semantic-role="unknown" data-semantic-font="normal" data-semantic-annotation="clearspeak:unit" data-semantic-id="0" data-semantic-speech="40">
                <use data-c="34" xlink:href="#volume-knobs-MJX-9-TEX-N-34"/>
                <use data-c="30" xlink:href="#volume-knobs-MJX-9-TEX-N-30" transform="translate(500,0)"/>
              </g>
            </g>
          </g>
        </svg>
      </g>
    </g>
    <g id="volume-knobs-label-8" transform="translate(19.0,163.3) translate(-18.1,-6.2)">
      <g id="volume-knobs-g-8">
        <svg xmlns:xlink="http://www.w3.org/1999/xlink" style="vertical-align: -0.400px" width="18.096px" height="12.456px" role="img" focusable="false" viewBox="0 -666 1000 688" x="0.0" y="0.0">
          <defs>
            <path id="volume-knobs-MJX-10-TEX-N-36" d="M42 313Q42 476 123 571T303 666Q372 666 402 630T432 550Q432 525 418 510T379 495Q356 495 341 509T326 548Q326 592 373 601Q351 623 311 626Q240 626 194 566Q147 500 147 364L148 360Q153 366 156 373Q197 433 263 433H267Q313 433 348 414Q372 400 396 374T435 317Q456 268 456 210V192Q456 169 451 149Q440 90 387 34T253 -22Q225 -22 199 -14T143 16T92 75T56 172T42 313ZM257 397Q227 397 205 380T171 335T154 278T148 216Q148 133 160 97T198 39Q222 21 251 21Q302 21 329 59Q342 77 347 104T352 209Q352 289 347 316T329 361Q302 397 257 397Z"/>
            <path id="volume-knobs-MJX-10-TEX-N-30" d="M96 585Q152 666 249 666Q297 666 345 640T423 548Q460 465 460 320Q460 165 417 83Q397 41 362 16T301 -15T250 -22Q224 -22 198 -16T137 16T82 83Q39 165 39 320Q39 494 96 585ZM321 597Q291 629 250 629Q208 629 178 597Q153 571 145 525T137 333Q137 175 145 125T181 46Q209 16 250 16Q290 16 318 46Q347 76 354 130T362 333Q362 478 354 524T321 597Z"/>
          </defs>
          <g stroke="currentColor" fill="currentColor" stroke-width="0" transform="scale(1,-1)">
            <g data-mml-node="math">
              <g data-mml-node="mtext" data-semantic-type="text" data-semantic-role="unknown" data-semantic-font="normal" data-semantic-annotation="clearspeak:unit" data-semantic-id="0" data-semantic-speech="60">
                <use data-c="36" xlink:href="#volume-knobs-MJX-10-TEX-N-36"/>
                <use data-c="30" xlink:href="#volume-knobs-MJX-10-TEX-N-30" transform="translate(500,0)"/>
              </g>
            </g>
          </g>
        </svg>
      </g>
    </g>
    <g id="volume-knobs-label-9" transform="translate(19.0,74.4) translate(-18.1,-6.2)">
      <g id="volume-knobs-g-9">
        <svg xmlns:xlink="http://www.w3.org/1999/xlink" style="vertical-align: -0.400px" width="18.096px" height="12.456px" role="img" focusable="false" viewBox="0 -666 1000 688" x="0.0" y="0.0">
          <defs>
            <path id="volume-knobs-MJX-11-TEX-N-38" d="M70 417T70 494T124 618T248 666Q319 666 374 624T429 515Q429 485 418 459T392 417T361 389T335 371T324 363L338 354Q352 344 366 334T382 323Q457 264 457 174Q457 95 399 37T249 -22Q159 -22 101 29T43 155Q43 263 172 335L154 348Q133 361 127 368Q70 417 70 494ZM286 386L292 390Q298 394 301 396T311 403T323 413T334 425T345 438T355 454T364 471T369 491T371 513Q371 556 342 586T275 624Q268 625 242 625Q201 625 165 599T128 534Q128 511 141 492T167 463T217 431Q224 426 228 424L286 386ZM250 21Q308 21 350 55T392 137Q392 154 387 169T375 194T353 216T330 234T301 253T274 270Q260 279 244 289T218 306L210 311Q204 311 181 294T133 239T107 157Q107 98 150 60T250 21Z"/>
            <path id="volume-knobs-MJX-11-TEX-N-30" d="M96 585Q152 666 249 666Q297 666 345 640T423 548Q460 465 460 320Q460 165 417 83Q397 41 362 16T301 -15T250 -22Q224 -22 198 -16T137 16T82 83Q39 165 39 320Q39 494 96 585ZM321 597Q291 629 250 629Q208 629 178 597Q153 571 145 525T137 333Q137 175 145 125T181 46Q209 16 250 16Q290 16 318 46Q347 76 354 130T362 333Q362 478 354 524T321 597Z"/>
          </defs>
          <g stroke="currentColor" fill="currentColor" stroke-width="0" transform="scale(1,-1)">
            <g data-mml-node="math">
              <g data-mml-node="mtext" data-semantic-type="text" data-semantic-role="unknown" data-semantic-font="normal" data-semantic-annotation="clearspeak:unit" data-semantic-id="0" data-semantic-speech="80">
                <use data-c="38" xlink:href="#volume-knobs-MJX-11-TEX-N-38"/>
                <use data-c="30" xlink:href="#volume-knobs-MJX-11-TEX-N-30" transform="translate(500,0)"/>
              </g>
            </g>
          </g>
        </svg>
      </g>
    </g>
  </g>
  <path id="volume-knobs-graph" stroke="blue" stroke-width="2" fill="none" d="M 30.0 430.0 L 31.8 426.4 L 33.6 422.9 L 35.3 419.3 L 37.1 415.8 L 38.9 412.2 L 40.7 408.7 L 42.4 405.1 L 44.2 401.6 L 46.0 398.0 L 47.8 394.4 L 49.6 390.9 L 51.3 387.3 L 53.1 383.8 L 54.9 380.2 L 56.7 376.7 L 58.4 373.1 L 60.2 369.6 L 62.0 366.0 L 63.8 362.4 L 65.6 358.9 L 67.3 355.3 L 69.1 351.8 L 70.9 348.2 L 72.7 344.7 L 74.4 341.1 L 76.2 337.6 L 78.0 334.0 L 79.8 330.4 L 81.6 326.9 L 83.3 323.3 L 85.1 319.8 L 86.9 316.2 L 88.7 312.7 L 90.4 309.1 L 92.2 305.6 L 94.0 302.0 L 95.8 298.4 L 97.6 294.9 L 99.3 291.3 L 101.1 287.8 L 102.9 284.2 L 104.7 280.7 L 106.4 277.1 L 108.2 273.6 L 110.0 270.0 L 111.8 266.4 L 113.6 262.9 L 115.3 259.3 L 117.1 255.8 L 118.9 252.2 L 120.7 248.7 L 122.4 245.1 L 124.2 241.6 L 126.0 238.0 L 127.8 234.4 L 129.6 230.9 L 131.3 227.3 L 133.1 223.8 L 134.9 220.2 L 136.7 216.7 L 138.4 213.1 L 140.2 209.6 L 142.0 206.0 L 143.8 202.4 L 145.6 198.9 L 147.3 195.3 L 149.1 191.8 L 150.9 188.2 L 152.7 184.7 L 154.4 181.1 L 156.2 177.6 L 158.0 174.0 L 159.8 170.4 L 161.6 166.9 L 163.3 163.3 L 165.1 159.8 L 166.9 156.2 L 168.7 152.7 L 170.4 149.1 L 172.2 145.6 L 174.0 142.0 L 175.8 138.4 L 177.6 134.9 L 179.3 131.3 L 181.1 127.8 L 182.9 124.2 L 184.7 120.7 L 186.4 117.1 L 188.2 113.6 L 190.0 110.0 L 191.8 106.4 L 193.6 102.9 L 195.3 99.3 L 197.1 95.8 L 198.9 92.2 L 200.7 88.7 L 202.4 85.1 L 204.2 81.6 L 206.0 78.0 L 207.8 74.4" clip-path="url(#volume-knobs-clipPath-1)"/>
  <path id="volume-knobs-graph" stroke="red" stroke-width="2" fill="none" d="M 30.0 430.0 L 30.9 426.4 L 31.8 422.9 L 32.7 419.3 L 33.6 415.8 L 34.4 412.2 L 35.3 408.7 L 36.2 405.1 L 37.1 401.6 L 38.0 398.0 L 38.9 394.4 L 39.8 390.9 L 40.7 387.3 L 41.6 383.8 L 42.4 380.2 L 43.3 376.7 L 44.2 373.1 L 45.1 369.6 L 46.0 366.0 L 46.9 362.4 L 47.8 358.9 L 48.7 355.3 L 49.6 351.8 L 50.4 348.2 L 51.3 344.7 L 52.2 341.1 L 53.1 337.6 L 54.0 334.0 L 54.9 330.4 L 55.8 326.9 L 56.7 323.3 L 57.6 319.8 L 58.4 316.2 L 59.3 312.7 L 60.2 309.1 L 61.1 305.6 L 62.0 302.0 L 62.9 298.4 L 63.8 294.9 L 64.7 291.3 L 65.6 287.8 L 66.4 284.2 L 67.3 280.7 L 68.2 277.1 L 69.1 273.6 L 70.0 270.0 L 70.9 266.4 L 71.8 262.9 L 72.7 259.3 L 73.6 255.8 L 74.4 252.2 L 75.3 248.7 L 76.2 245.1 L 77.1 241.6 L 78.0 238.0 L 78.9 234.4 L 79.8 230.9 L 80.7 227.3 L 81.6 223.8 L 82.4 220.2 L 83.3 216.7 L 84.2 213.1 L 85.1 209.6 L 86.0 206.0 L 86.9 202.4 L 87.8 198.9 L 88.7 195.3 L 89.6 191.8 L 90.4 188.2 L 91.3 184.7 L 92.2 181.1 L 93.1 177.6 L 94.0 174.0 L 94.9 170.4 L 95.8 166.9 L 96.7 163.3 L 97.6 159.8 L 98.4 156.2 L 99.3 152.7 L 100.2 149.1 L 101.1 145.6 L 102.0 142.0 L 102.9 138.4 L 103.8 134.9 L 104.7 131.3 L 105.6 127.8 L 106.4 124.2 L 107.3 120.7 L 108.2 117.1 L 109.1 113.6 L 110.0 110.0 L 110.9 106.4 L 111.8 102.9 L 112.7 99.3 L 113.6 95.8 L 114.4 92.2 L 115.3 88.7 L 116.2 85.1 L 117.1 81.6 L 118.0 78.0 L 118.9 74.4" clip-path="url(#volume-knobs-clipPath-1)"/>
</svg>
